<svg xmlns="http://www.w3.org/2000/svg" xmlns:xlink="http://www.w3.org/1999/xlink" width="500" zoomAndPan="magnify" viewBox="0 0 375 374.999991" height="500" preserveAspectRatio="xMidYMid meet" version="1.0"><defs><g/><clipPath id="3cb4f7dbc1"><path d="M 90 60 L 188 60 L 188 256 L 90 256 Z M 90 60 " clip-rule="nonzero"/></clipPath><clipPath id="24088417b4"><path d="M 90.050781 255.757812 L 89.945312 60.007812 L 187.445312 59.953125 L 187.550781 255.703125 Z M 90.050781 255.757812 " clip-rule="nonzero"/></clipPath><clipPath id="93ea621d4a"><path d="M 90.050781 255.757812 L 89.945312 60.007812 L 320.195312 59.882812 L 320.300781 255.632812 Z M 90.050781 255.757812 " clip-rule="nonzero"/></clipPath><clipPath id="1c5cdea0ca"><path d="M 98 68 L 188 68 L 188 247 L 98 247 Z M 98 68 " clip-rule="nonzero"/></clipPath><clipPath id="7cbbcf56d4"><path d="M 90.050781 255.757812 L 89.945312 60.007812 L 187.445312 59.953125 L 187.550781 255.703125 Z M 90.050781 255.757812 " clip-rule="nonzero"/></clipPath><clipPath id="8c6d44f473"><path d="M 90.050781 255.757812 L 89.945312 60.007812 L 320.195312 59.882812 L 320.300781 255.632812 Z M 90.050781 255.757812 " clip-rule="nonzero"/></clipPath><clipPath id="9639de07c8"><path d="M 126.101562 60 L 249 60 L 249 255.746094 L 126.101562 255.746094 Z M 126.101562 60 " clip-rule="nonzero"/></clipPath></defs><g clip-path="url(#3cb4f7dbc1)"><g clip-path="url(#24088417b4)"><g clip-path="url(#93ea621d4a)"><path fill="#e1ddcc" d="M 90 158.050781 C 90.027344 211.917969 133.871094 255.714844 187.738281 255.6875 L 319.886719 255.617188 C 320.097656 255.617188 320.269531 255.445312 320.269531 255.234375 L 320.164062 60.628906 C 320.164062 60.417969 319.992188 60.246094 319.78125 60.246094 L 187.632812 60.316406 C 133.765625 60.339844 89.96875 104.191406 90 158.050781 Z M 319.398438 61.011719 L 319.503906 254.851562 L 187.738281 254.921875 C 134.292969 254.949219 90.792969 211.496094 90.765625 158.050781 C 90.734375 104.609375 134.191406 61.105469 187.632812 61.078125 L 319.398438 61.007812 Z M 319.398438 61.011719 " fill-opacity="1" fill-rule="nonzero"/></g></g></g><g clip-path="url(#1c5cdea0ca)"><g clip-path="url(#7cbbcf56d4)"><g clip-path="url(#8c6d44f473)"><path fill="#2b6b6e" d="M 187.636719 69.007812 L 311.476562 68.941406 L 311.574219 246.925781 L 187.734375 246.992188 C 138.582031 247.019531 98.71875 207.199219 98.695312 158.046875 C 98.667969 108.902344 138.488281 69.035156 187.636719 69.007812 Z M 187.636719 69.007812 " fill-opacity="1" fill-rule="nonzero"/></g></g></g><path fill="#e1ddcc" d="M 200.453125 164.800781 C 202.644531 170.523438 203.0625 176.917969 196.121094 176.917969 C 185.179688 176.917969 192.5 161.179688 196.121094 157.015625 C 197.425781 158.527344 199.191406 161.558594 200.453125 164.800781 Z M 196.121094 152.636719 C 207.0625 152.636719 199.738281 136.898438 196.121094 132.734375 C 192.5 136.898438 185.179688 152.636719 196.121094 152.636719 Z M 202.855469 161.855469 C 202.855469 161.855469 212.910156 166.652344 211.941406 147.546875 C 211.941406 147.546875 202.265625 150.070312 202.855469 161.855469 Z M 195.53125 116.363281 C 195.53125 116.363281 205.589844 121.164062 204.621094 102.058594 C 204.621094 102.101562 194.984375 104.582031 195.53125 116.363281 Z M 208.15625 117.796875 C 208.15625 117.796875 199.527344 120.488281 199.527344 130.96875 C 199.527344 130.96875 208.15625 136.816406 208.15625 117.796875 Z M 205.378906 144.136719 C 213.332031 144.136719 213.078125 132.1875 213.078125 132.1875 C 203.484375 133.238281 205.378906 144.136719 205.378906 144.136719 Z M 195.40625 102.183594 C 203.359375 102.183594 203.105469 86.910156 203.105469 86.910156 C 193.511719 87.960938 195.40625 102.183594 195.40625 102.183594 Z M 195.742188 73.445312 C 194.101562 77.945312 195.953125 82.785156 195.953125 82.785156 C 202.980469 78.746094 195.742188 73.445312 195.742188 73.445312 Z M 225.535156 133.703125 C 225.535156 133.703125 215.730469 149.691406 222.757812 163.285156 C 222.757812 163.285156 233.234375 146.242188 225.535156 133.703125 Z M 224.988281 163.578125 C 230.921875 163.875 248.046875 162.78125 248.046875 140.015625 C 248.046875 140.015625 228.773438 154.488281 223.050781 163.285156 C 222.925781 163.285156 222.839844 163.242188 222.714844 163.242188 C 222.714844 163.242188 227.808594 179.820312 245.566406 181.839844 C 245.605469 181.882812 242.199219 166.652344 224.988281 163.578125 Z M 191.746094 123.140625 C 191.703125 123.015625 191.617188 122.84375 191.574219 122.71875 C 191.449219 122.425781 191.324219 122.171875 191.238281 121.917969 C 191.113281 121.667969 190.988281 121.371094 190.859375 121.121094 C 190.734375 120.867188 190.609375 120.617188 190.480469 120.363281 C 189.515625 118.46875 188.460938 116.871094 187.621094 115.902344 C 186.777344 116.871094 185.726562 118.46875 184.757812 120.363281 C 184.632812 120.617188 184.507812 120.867188 184.378906 121.121094 C 184.253906 121.371094 184.128906 121.667969 184 121.917969 C 183.875 122.171875 183.75 122.46875 183.664062 122.71875 C 183.625 122.84375 183.539062 123.015625 183.496094 123.140625 C 181.140625 128.988281 180.46875 135.765625 187.664062 135.765625 C 194.859375 135.765625 194.058594 128.988281 191.746094 123.140625 Z M 187.578125 115.230469 C 194.730469 115.230469 194.058594 108.453125 191.746094 102.605469 C 191.703125 102.480469 191.617188 102.3125 191.574219 102.183594 C 191.449219 101.890625 191.324219 101.636719 191.238281 101.386719 C 191.113281 101.132812 190.988281 100.835938 190.859375 100.585938 C 190.734375 100.332031 190.609375 100.082031 190.480469 99.828125 C 189.515625 97.933594 188.460938 96.335938 187.621094 95.367188 C 186.777344 96.335938 185.726562 97.933594 184.757812 99.828125 C 184.632812 100.082031 184.507812 100.332031 184.378906 100.585938 C 184.253906 100.835938 184.128906 101.132812 184 101.386719 C 183.875 101.636719 183.75 101.933594 183.664062 102.183594 C 183.625 102.3125 183.539062 102.480469 183.496094 102.605469 C 181.097656 108.414062 180.425781 115.230469 187.578125 115.230469 Z M 187.578125 94.652344 C 194.730469 94.652344 194.058594 87.878906 191.746094 82.027344 C 191.703125 81.902344 191.617188 81.734375 191.574219 81.605469 C 191.449219 81.3125 191.324219 81.058594 191.238281 80.808594 C 191.113281 80.554688 190.988281 80.261719 190.859375 80.007812 C 190.734375 79.753906 190.609375 79.503906 190.480469 79.25 C 189.515625 77.355469 188.460938 75.757812 187.621094 74.789062 C 186.777344 75.757812 185.726562 77.355469 184.757812 79.25 C 184.632812 79.503906 184.507812 79.753906 184.378906 80.007812 C 184.253906 80.261719 184.128906 80.554688 184 80.808594 C 183.875 81.058594 183.75 81.355469 183.664062 81.605469 C 183.625 81.734375 183.539062 81.902344 183.496094 82.027344 C 181.097656 87.878906 180.425781 94.652344 187.578125 94.652344 Z M 179.035156 152.636719 C 189.976562 152.636719 182.65625 136.898438 179.035156 132.734375 C 175.460938 136.898438 168.136719 152.636719 179.035156 152.636719 Z M 163.214844 147.546875 C 162.246094 166.652344 172.304688 161.855469 172.304688 161.855469 C 172.894531 150.070312 163.214844 147.546875 163.214844 147.546875 Z M 179.625 116.363281 C 180.171875 104.582031 170.535156 102.058594 170.535156 102.058594 C 169.570312 121.164062 179.625 116.363281 179.625 116.363281 Z M 167.042969 117.796875 C 167.042969 136.816406 175.671875 130.96875 175.671875 130.96875 C 175.628906 120.488281 167.042969 117.796875 167.042969 117.796875 Z M 169.777344 144.136719 C 169.777344 144.136719 171.671875 133.238281 162.078125 132.1875 C 162.078125 132.1875 161.824219 144.136719 169.777344 144.136719 Z M 179.75 102.183594 C 179.75 102.183594 181.644531 87.960938 172.050781 86.910156 C 172.050781 86.910156 171.796875 102.183594 179.75 102.183594 Z M 174.703125 164.800781 C 172.515625 170.523438 172.09375 176.917969 179.035156 176.917969 C 189.976562 176.917969 182.65625 161.179688 179.035156 157.015625 C 177.730469 158.527344 175.964844 161.558594 174.703125 164.800781 Z M 152.398438 163.285156 C 159.425781 149.691406 149.621094 133.703125 149.621094 133.703125 C 141.921875 146.242188 152.398438 163.285156 152.398438 163.285156 Z M 127.109375 140.015625 C 127.109375 162.78125 144.234375 163.875 150.167969 163.578125 C 133 166.652344 129.550781 181.839844 129.550781 181.839844 C 147.308594 179.820312 152.398438 163.242188 152.398438 163.242188 C 152.273438 163.242188 152.1875 163.285156 152.0625 163.285156 C 146.382812 154.488281 127.109375 140.015625 127.109375 140.015625 Z M 179.203125 82.742188 C 179.203125 82.742188 181.097656 77.902344 179.414062 73.402344 C 179.414062 73.445312 172.21875 78.746094 179.203125 82.742188 Z M 187.578125 74.160156 C 195.363281 74.160156 190.144531 64.355469 187.578125 61.410156 C 185.011719 64.355469 179.792969 74.160156 187.578125 74.160156 Z M 187.578125 74.160156 " fill-opacity="1" fill-rule="nonzero"/><g clip-path="url(#9639de07c8)"><path fill="#e1ddcc" d="M 230.414062 164.210938 C 233.867188 163.746094 237.992188 162.484375 241.484375 159.539062 C 246.40625 155.375 248.890625 148.808594 248.890625 140.054688 C 248.890625 139.71875 248.71875 139.425781 248.425781 139.296875 C 248.132812 139.171875 247.792969 139.171875 247.542969 139.382812 C 246.867188 139.886719 233.949219 149.609375 226.292969 157.980469 C 228.816406 151.753906 231.382812 141.65625 226.25 133.28125 C 226.082031 133.027344 225.828125 132.859375 225.535156 132.859375 C 225.238281 132.859375 224.988281 133.027344 224.820312 133.28125 C 224.398438 133.953125 214.929688 149.652344 221.914062 163.496094 C 219.097656 172.414062 211.730469 179.820312 204.621094 186.933594 C 198.394531 193.160156 192.039062 199.597656 188.421875 207.171875 L 188.421875 183.566406 C 191.070312 183.441406 194.015625 182.597656 196.625 177.800781 C 199.992188 177.632812 201.464844 175.992188 202.097656 174.605469 C 203.230469 172.121094 202.644531 168.542969 201.421875 165.179688 C 201.96875 164.714844 202.8125 163.957031 203.316406 162.988281 C 203.863281 163.15625 204.578125 163.285156 205.421875 163.285156 C 206.429688 163.285156 207.609375 163.03125 208.746094 162.316406 C 211.816406 160.296875 213.164062 155.332031 212.742188 147.589844 C 212.742188 147.335938 212.617188 147.082031 212.40625 146.957031 C 212.195312 146.832031 211.941406 146.746094 211.691406 146.832031 C 211.605469 146.875 201.464844 149.609375 201.96875 161.8125 C 201.757812 162.441406 201.253906 163.03125 200.75 163.496094 C 199.488281 160.507812 197.886719 157.855469 196.710938 156.507812 C 196.375 156.128906 195.742188 156.128906 195.449219 156.507812 C 192.796875 159.582031 187.746094 169.429688 190.101562 174.5625 C 190.691406 175.824219 191.953125 177.339844 194.691406 177.675781 C 192.628906 181.042969 190.523438 181.714844 188.378906 181.800781 L 188.378906 159.75 C 189.894531 159.453125 193.21875 158.234375 196.5 153.480469 C 199.90625 153.351562 201.378906 151.671875 202.011719 150.28125 C 202.390625 149.441406 202.558594 148.472656 202.601562 147.460938 C 203.402344 147.210938 204.621094 146.621094 205.757812 144.980469 C 207.609375 144.894531 209.164062 144.179688 210.46875 142.875 C 213.960938 139.296875 213.878906 132.480469 213.835938 132.1875 C 213.835938 131.933594 213.710938 131.722656 213.542969 131.554688 C 213.375 131.386719 213.121094 131.34375 212.910156 131.34375 C 210.089844 131.640625 207.902344 132.820312 206.386719 134.753906 C 203.90625 138.078125 204.242188 142.625 204.410156 143.925781 C 203.695312 144.9375 203.023438 145.398438 202.515625 145.652344 C 202.097656 141.824219 200.117188 137.445312 198.308594 134.5 C 198.941406 134.082031 199.65625 133.367188 200.035156 132.1875 C 200.625 132.398438 201.378906 132.648438 202.222656 132.648438 C 202.894531 132.648438 203.652344 132.523438 204.410156 132.101562 C 207.355469 130.546875 208.871094 125.707031 208.871094 117.753906 C 208.871094 117.5 208.746094 117.25 208.535156 117.082031 C 208.324219 116.914062 208.03125 116.871094 207.777344 116.953125 C 207.691406 116.996094 198.601562 119.941406 198.5625 130.882812 C 198.476562 132.144531 197.847656 132.820312 197.339844 133.113281 C 197.089844 132.734375 196.835938 132.441406 196.582031 132.144531 C 196.246094 131.765625 195.617188 131.765625 195.320312 132.144531 C 192.671875 135.21875 187.621094 145.0625 189.976562 150.199219 C 190.566406 151.460938 191.785156 152.890625 194.394531 153.3125 C 191.871094 156.59375 189.472656 157.644531 188.25 157.980469 L 188.25 136.5625 C 191.367188 136.3125 192.753906 134.710938 193.386719 133.367188 C 194.859375 130.082031 193.386719 124.949219 191.449219 120.824219 C 192.710938 120.53125 194.605469 119.730469 195.785156 117.417969 C 196.332031 117.585938 197.089844 117.753906 197.929688 117.753906 C 198.941406 117.753906 200.117188 117.5 201.253906 116.785156 C 204.328125 114.765625 205.671875 109.800781 205.253906 102.058594 C 205.253906 101.804688 205.125 101.554688 204.914062 101.425781 C 204.703125 101.257812 204.453125 101.214844 204.199219 101.300781 C 204.117188 101.34375 194.015625 104.078125 194.480469 116.238281 C 193.425781 118.679688 191.492188 119.226562 190.609375 119.3125 C 189.894531 118.007812 189.175781 116.871094 188.546875 116.027344 C 191.449219 115.691406 192.753906 114.175781 193.34375 112.871094 C 194.269531 110.8125 194.058594 107.992188 193.21875 105.128906 C 194.015625 104.792969 195.152344 104.160156 195.742188 103.066406 C 197.257812 102.941406 198.601562 102.308594 199.738281 101.175781 C 203.863281 97.007812 203.738281 87.371094 203.738281 86.992188 C 203.738281 86.742188 203.609375 86.53125 203.441406 86.363281 C 203.273438 86.195312 203.023438 86.152344 202.8125 86.152344 C 200.371094 86.40625 198.433594 87.5 196.960938 89.308594 C 193.597656 93.601562 194.183594 100.796875 194.351562 102.140625 C 194.058594 102.816406 193.34375 103.277344 192.753906 103.53125 C 191.617188 100.332031 189.933594 97.261719 188.589844 95.492188 C 191.492188 95.15625 192.796875 93.640625 193.386719 92.335938 C 194.183594 90.613281 194.144531 88.339844 193.636719 85.984375 C 194.3125 85.648438 195.40625 84.847656 196.582031 83.289062 C 198.519531 82.070312 199.570312 80.597656 199.65625 78.914062 C 199.824219 75.632812 196.203125 72.898438 196.035156 72.769531 L 195.152344 72.097656 L 194.773438 73.148438 C 193.257812 77.230469 194.4375 81.480469 194.859375 82.703125 C 194.183594 83.5 193.597656 83.964844 193.175781 84.257812 C 192.082031 80.597656 190.101562 76.9375 188.589844 74.917969 C 190.609375 74.621094 191.535156 73.570312 191.953125 72.6875 C 193.636719 69.023438 189.683594 62.753906 188.042969 60.863281 L 187.578125 60.105469 L 186.949219 60.820312 C 185.304688 62.714844 181.351562 68.984375 183.035156 72.644531 C 183.453125 73.527344 184.378906 74.578125 186.398438 74.875 C 184.886719 76.894531 182.90625 80.554688 181.8125 84.214844 C 181.394531 83.921875 180.804688 83.457031 180.128906 82.660156 C 180.550781 81.398438 181.730469 77.1875 180.214844 73.105469 L 179.835938 72.054688 L 178.953125 72.726562 C 178.785156 72.855469 175.164062 75.546875 175.332031 78.871094 C 175.417969 80.554688 176.46875 82.027344 178.40625 83.25 C 179.625 84.804688 180.71875 85.605469 181.351562 85.941406 C 180.847656 88.296875 180.804688 90.527344 181.601562 92.296875 C 182.191406 93.601562 183.496094 95.113281 186.398438 95.453125 C 185.054688 97.21875 183.371094 100.289062 182.234375 103.488281 C 181.644531 103.234375 180.929688 102.773438 180.636719 102.101562 C 180.804688 100.753906 181.394531 93.558594 178.027344 89.265625 C 176.597656 87.414062 174.617188 86.363281 172.175781 86.109375 C 171.925781 86.066406 171.714844 86.152344 171.546875 86.320312 C 171.378906 86.488281 171.25 86.699219 171.25 86.953125 C 171.25 87.371094 171.125 96.964844 175.25 101.132812 C 176.386719 102.269531 177.730469 102.898438 179.246094 103.027344 C 179.835938 104.160156 180.972656 104.792969 181.773438 105.085938 C 180.972656 107.90625 180.71875 110.769531 181.644531 112.832031 C 182.234375 114.136719 183.539062 115.648438 186.441406 115.988281 C 185.8125 116.828125 185.097656 117.964844 184.378906 119.269531 C 183.496094 119.140625 181.5625 118.636719 180.507812 116.195312 C 180.972656 104.035156 170.871094 101.300781 170.789062 101.257812 C 170.535156 101.175781 170.285156 101.257812 170.074219 101.386719 C 169.863281 101.554688 169.738281 101.761719 169.738281 102.015625 C 169.359375 109.757812 170.703125 114.722656 173.734375 116.742188 C 174.871094 117.5 176.046875 117.710938 177.058594 117.710938 C 177.898438 117.710938 178.65625 117.542969 179.203125 117.375 C 180.425781 119.691406 182.277344 120.53125 183.539062 120.785156 C 181.5625 124.90625 180.089844 130.042969 181.601562 133.324219 C 182.234375 134.671875 183.625 136.269531 186.738281 136.523438 L 186.738281 157.941406 C 185.515625 157.601562 183.117188 156.550781 180.59375 153.269531 C 183.246094 152.847656 184.464844 151.417969 185.011719 150.15625 C 187.367188 144.980469 182.320312 135.132812 179.667969 132.101562 C 179.332031 131.722656 178.699219 131.722656 178.40625 132.101562 C 178.152344 132.355469 177.941406 132.691406 177.648438 133.070312 C 177.183594 132.777344 176.554688 132.101562 176.425781 130.839844 C 176.386719 119.898438 167.339844 116.953125 167.210938 116.914062 C 166.960938 116.828125 166.664062 116.871094 166.453125 117.039062 C 166.242188 117.207031 166.117188 117.460938 166.117188 117.710938 C 166.117188 125.664062 167.632812 130.460938 170.578125 132.0625 C 171.335938 132.441406 172.050781 132.609375 172.765625 132.609375 C 173.609375 132.609375 174.367188 132.398438 174.953125 132.144531 C 175.332031 133.367188 176.046875 134.082031 176.679688 134.460938 C 174.871094 137.363281 172.894531 141.78125 172.472656 145.570312 C 171.96875 145.316406 171.292969 144.8125 170.578125 143.84375 C 170.746094 142.539062 171.082031 137.996094 168.601562 134.671875 C 167.128906 132.691406 164.941406 131.554688 162.078125 131.261719 C 161.824219 131.21875 161.617188 131.304688 161.445312 131.472656 C 161.277344 131.640625 161.152344 131.851562 161.152344 132.101562 C 161.152344 132.398438 161.027344 139.214844 164.519531 142.792969 C 165.78125 144.097656 167.378906 144.769531 169.230469 144.894531 C 170.367188 146.496094 171.589844 147.125 172.386719 147.378906 C 172.429688 148.386719 172.597656 149.355469 172.976562 150.199219 C 173.609375 151.628906 175.121094 153.269531 178.488281 153.394531 C 181.8125 158.152344 185.097656 159.371094 186.609375 159.664062 L 186.609375 181.714844 C 184.464844 181.589844 182.359375 180.957031 180.296875 177.589844 C 183.035156 177.210938 184.296875 175.738281 184.886719 174.476562 C 187.242188 169.300781 182.191406 159.453125 179.542969 156.425781 C 179.203125 156.046875 178.574219 156.046875 178.277344 156.425781 C 177.101562 157.773438 175.5 160.421875 174.238281 163.410156 C 173.734375 162.949219 173.230469 162.316406 173.019531 161.726562 C 173.523438 149.523438 163.382812 146.746094 163.296875 146.746094 C 163.046875 146.664062 162.792969 146.746094 162.582031 146.875 C 162.371094 147.042969 162.246094 147.25 162.246094 147.503906 C 161.867188 155.246094 163.214844 160.210938 166.242188 162.230469 C 167.378906 162.988281 168.558594 163.199219 169.570312 163.199219 C 170.410156 163.199219 171.167969 163.03125 171.671875 162.90625 C 172.175781 163.875 173.019531 164.671875 173.566406 165.09375 C 172.34375 168.460938 171.796875 172.035156 172.894531 174.519531 C 173.523438 175.910156 174.996094 177.589844 178.363281 177.71875 C 180.972656 182.515625 183.917969 183.355469 186.570312 183.484375 L 186.570312 207.089844 C 182.992188 199.515625 176.597656 193.117188 170.367188 186.847656 C 163.257812 179.695312 155.890625 172.332031 153.074219 163.410156 C 160.015625 149.609375 150.546875 133.871094 150.167969 133.195312 C 150 132.945312 149.75 132.777344 149.453125 132.777344 C 149.160156 132.777344 148.90625 132.945312 148.738281 133.195312 C 143.605469 141.570312 146.171875 151.671875 148.695312 157.898438 C 141.039062 149.523438 128.121094 139.804688 127.445312 139.296875 C 127.195312 139.089844 126.855469 139.089844 126.5625 139.214844 C 126.269531 139.339844 126.101562 139.636719 126.101562 139.972656 C 126.101562 148.726562 128.582031 155.289062 133.507812 159.453125 C 137 162.402344 141.082031 163.664062 144.574219 164.125 C 131.738281 169.132812 128.792969 181.546875 128.75 181.671875 C 128.707031 181.925781 128.75 182.21875 128.960938 182.429688 C 129.128906 182.597656 129.339844 182.726562 129.59375 182.726562 C 129.632812 182.726562 129.632812 182.726562 129.675781 182.726562 C 143.730469 181.125 150.167969 170.523438 152.316406 165.808594 C 155.597656 174.308594 162.582031 181.292969 169.359375 188.113281 C 176.511719 195.308594 183.875 202.714844 186.738281 211.71875 L 186.738281 254.808594 C 186.738281 255.269531 187.117188 255.648438 187.578125 255.648438 C 188.042969 255.648438 188.421875 255.269531 188.421875 254.808594 L 188.421875 211.71875 C 191.238281 202.714844 198.644531 195.265625 205.800781 188.113281 C 212.574219 181.292969 219.558594 174.265625 222.839844 165.808594 C 225.03125 170.523438 231.425781 181.125 245.480469 182.726562 C 245.523438 182.726562 245.566406 182.726562 245.566406 182.726562 C 245.816406 182.726562 246.027344 182.640625 246.195312 182.429688 C 246.363281 182.21875 246.449219 181.96875 246.40625 181.671875 C 246.40625 181.546875 243.460938 169.132812 230.414062 164.210938 Z M 211.144531 148.726562 C 211.394531 156.71875 209.503906 159.707031 207.859375 160.84375 C 206.304688 161.894531 204.496094 161.515625 203.695312 161.265625 C 203.484375 152.847656 208.828125 149.691406 211.144531 148.726562 Z M 191.660156 173.847656 C 189.894531 169.933594 193.554688 161.894531 196.121094 158.402344 C 198.6875 161.894531 202.347656 169.976562 200.582031 173.847656 C 199.90625 175.359375 198.433594 176.078125 196.121094 176.078125 C 193.804688 176.078125 192.332031 175.359375 191.660156 173.847656 Z M 207.820312 135.765625 C 208.828125 134.417969 210.300781 133.535156 212.195312 133.15625 C 212.109375 135.046875 211.605469 139.339844 209.292969 141.699219 C 208.40625 142.625 207.355469 143.128906 206.09375 143.253906 C 206.007812 141.738281 205.96875 138.246094 207.820312 135.765625 Z M 207.273438 119.058594 C 207.105469 127.09375 205.292969 129.789062 203.738281 130.628906 C 202.433594 131.304688 201.042969 130.796875 200.371094 130.460938 C 200.582031 123.222656 205.125 120.109375 207.273438 119.058594 Z M 191.660156 149.566406 C 189.894531 145.652344 193.554688 137.617188 196.121094 134.121094 C 198.6875 137.617188 202.347656 145.695312 200.582031 149.566406 C 199.90625 151.082031 198.433594 151.796875 196.121094 151.796875 C 193.804688 151.796875 192.332031 151.039062 191.660156 149.566406 Z M 203.820312 103.234375 C 204.074219 111.230469 202.179688 114.21875 200.539062 115.355469 C 198.980469 116.40625 197.171875 116.027344 196.375 115.777344 C 196.164062 107.359375 201.550781 104.203125 203.820312 103.234375 Z M 198.519531 90.277344 C 199.488281 89.054688 200.75 88.257812 202.265625 87.917969 C 202.179688 90.402344 201.675781 96.964844 198.773438 99.910156 C 198.015625 100.667969 197.171875 101.132812 196.203125 101.300781 C 196.035156 99.238281 195.910156 93.640625 198.519531 90.277344 Z M 196.164062 74.917969 C 197.128906 75.84375 198.226562 77.355469 198.140625 78.789062 C 198.097656 79.753906 197.507812 80.640625 196.414062 81.4375 C 196.078125 80.09375 195.574219 77.527344 196.164062 74.917969 Z M 176.972656 78.789062 C 176.890625 77.273438 178.070312 75.800781 178.953125 74.917969 C 179.542969 77.484375 179.078125 80.050781 178.699219 81.4375 C 177.648438 80.640625 177.058594 79.753906 176.972656 78.789062 Z M 172.894531 87.917969 C 174.40625 88.257812 175.671875 89.054688 176.636719 90.277344 C 179.246094 93.601562 179.121094 99.238281 178.953125 101.300781 C 177.984375 101.132812 177.144531 100.710938 176.386719 99.910156 C 173.480469 96.964844 172.976562 90.402344 172.894531 87.917969 Z M 174.617188 115.355469 C 172.976562 114.261719 171.082031 111.230469 171.335938 103.234375 C 173.609375 104.203125 178.996094 107.359375 178.824219 115.777344 C 177.984375 116.070312 176.21875 116.40625 174.617188 115.355469 Z M 171.417969 130.628906 C 169.863281 129.789062 168.054688 127.09375 167.886719 119.058594 C 170.03125 120.109375 174.574219 123.222656 174.785156 130.460938 C 174.113281 130.796875 172.722656 131.304688 171.417969 130.628906 Z M 162.960938 133.15625 C 164.855469 133.535156 166.328125 134.417969 167.339844 135.765625 C 169.191406 138.246094 169.148438 141.738281 169.019531 143.253906 C 167.757812 143.128906 166.707031 142.582031 165.824219 141.699219 C 163.550781 139.339844 163.046875 135.089844 162.960938 133.15625 Z M 174.617188 149.566406 C 172.851562 145.652344 176.511719 137.617188 179.078125 134.121094 C 181.644531 137.617188 185.304688 145.695312 183.539062 149.566406 C 182.867188 151.082031 181.394531 151.796875 179.078125 151.796875 C 176.765625 151.796875 175.292969 151.039062 174.617188 149.566406 Z M 167.339844 160.84375 C 165.695312 159.75 163.804688 156.71875 164.054688 148.726562 C 166.328125 149.691406 171.671875 152.933594 171.546875 161.265625 C 170.664062 161.515625 168.894531 161.894531 167.339844 160.84375 Z M 174.617188 173.847656 C 172.851562 169.933594 176.511719 161.894531 179.078125 158.402344 C 181.644531 161.894531 185.304688 169.976562 183.539062 173.847656 C 182.867188 175.359375 181.394531 176.078125 179.078125 176.078125 C 176.765625 176.078125 175.292969 175.359375 174.617188 173.847656 Z M 149.621094 135.425781 C 151.601562 139.257812 156.777344 150.953125 152.359375 161.433594 C 150.210938 157.351562 144.742188 145.148438 149.621094 135.425781 Z M 134.769531 158.234375 C 130.558594 154.65625 128.289062 149.144531 127.992188 141.78125 C 132.285156 145.105469 145.332031 155.457031 150.632812 162.695312 C 150.464844 162.738281 150.296875 162.738281 150.128906 162.78125 C 146.84375 162.90625 139.945312 162.609375 134.769531 158.234375 Z M 130.730469 180.875 C 131.90625 177.296875 136.492188 166.945312 150.210938 164.460938 C 150.546875 164.460938 150.84375 164.421875 151.09375 164.421875 C 149.496094 168.164062 143.859375 178.769531 130.730469 180.875 Z M 184.546875 71.972656 C 183.539062 69.78125 185.769531 65.238281 187.578125 62.753906 C 189.386719 65.195312 191.574219 69.78125 190.609375 71.972656 C 190.441406 72.308594 189.976562 73.316406 187.578125 73.316406 C 185.179688 73.316406 184.71875 72.308594 184.546875 71.972656 Z M 183.117188 91.582031 C 181.351562 87.667969 185.011719 79.628906 187.578125 76.136719 C 190.144531 79.628906 193.804688 87.707031 192.039062 91.582031 C 191.367188 93.09375 189.894531 93.808594 187.578125 93.808594 C 185.265625 93.808594 183.832031 93.09375 183.117188 91.582031 Z M 183.117188 112.113281 C 181.351562 108.203125 185.011719 100.164062 187.578125 96.671875 C 190.144531 100.164062 193.804688 108.242188 192.039062 112.113281 C 191.367188 113.628906 189.894531 114.34375 187.578125 114.34375 C 185.265625 114.34375 183.832031 113.628906 183.117188 112.113281 Z M 183.117188 132.691406 C 181.351562 128.777344 185.011719 120.742188 187.578125 117.25 C 190.144531 120.742188 193.804688 128.820312 192.039062 132.691406 C 191.367188 134.207031 189.894531 134.921875 187.578125 134.921875 C 185.265625 134.921875 183.832031 134.207031 183.117188 132.691406 Z M 247.164062 141.78125 C 246.867188 149.144531 244.597656 154.699219 240.390625 158.234375 C 235.214844 162.652344 228.3125 162.90625 225.03125 162.738281 C 224.863281 162.695312 224.691406 162.695312 224.523438 162.652344 C 229.867188 155.457031 242.914062 145.0625 247.164062 141.78125 Z M 225.535156 135.425781 C 230.414062 145.148438 224.945312 157.351562 222.800781 161.433594 C 218.382812 150.953125 223.558594 139.257812 225.535156 135.425781 Z M 224.0625 164.378906 C 224.3125 164.421875 224.609375 164.421875 224.945312 164.421875 C 238.707031 166.902344 243.25 177.253906 244.429688 180.832031 C 231.300781 178.769531 225.703125 168.164062 224.0625 164.378906 Z M 224.0625 164.378906 " fill-opacity="1" fill-rule="nonzero"/></g><g fill="#2b6b6e" fill-opacity="1"><g transform="translate(75.63922, 284.910171)"><g><path d="M 6.78125 -3.015625 C 10.609375 -11.0625 14.34375 -28.765625 14.34375 -32.890625 C 14.34375 -35.28125 12.109375 -36.4375 9.796875 -36.4375 C 8.75 -29 5.171875 -8.90625 2.9375 -2.96875 C 2.421875 -2.9375 1.890625 -2.9375 1.390625 -2.890625 C 1.546875 -0.078125 2.078125 1.125 4.125 1.125 C 12.796875 1.125 17.125 1.125 19.828125 -0.8125 C 17.5 -2.390625 12.21875 -2.96875 6.78125 -3.015625 Z M 6.78125 -3.015625 "/></g></g></g><g fill="#2b6b6e" fill-opacity="1"><g transform="translate(93.335778, 284.910171)"><g><path d="M 22.828125 -9.140625 C 22.59375 -9.140625 22.359375 -9.03125 22.25 -8.796875 C 20.625 -5.859375 18.671875 -2.546875 17.15625 -1.65625 C 16.78125 -2.5 16.578125 -3.359375 16.578125 -4.28125 C 16.578125 -7.859375 17.890625 -13.375 19.46875 -17.203125 C 19.546875 -17.46875 19.59375 -17.703125 19.59375 -17.9375 C 19.59375 -19.703125 17.5 -20.171875 15.390625 -20.171875 C 15.234375 -19.703125 15.046875 -18.96875 14.8125 -18.078125 C 11.6875 -9.0625 9.609375 -3.65625 6.484375 -1.78125 C 6.515625 -8.875 9.53125 -17.8125 9.53125 -18.4375 C 9.53125 -19.75 8.0625 -20.015625 6.328125 -20.015625 C 6.015625 -20.015625 5.625 -19.96875 5.359375 -19.890625 C 4.515625 -17.734375 1.96875 -10.25 1.96875 -3.65625 C 1.96875 -3.046875 2.078125 -2.421875 2.578125 -1.84375 C 3.515625 -0.8125 5.125 0.84375 6.78125 0.84375 C 8.875 0.84375 11.609375 -3.3125 13.03125 -6.75 C 13.1875 -4.015625 13.34375 -1.546875 16.3125 0.15625 C 16.78125 0.421875 17.28125 0.546875 17.734375 0.546875 C 19.59375 0.546875 22.140625 -4.171875 23.953125 -7.984375 C 24.171875 -8.515625 23.453125 -9.140625 22.828125 -9.140625 Z M 22.828125 -9.140625 "/></g></g></g><g fill="#2b6b6e" fill-opacity="1"><g transform="translate(113.152847, 284.910171)"><g><path d="M 22.515625 -9.0625 C 22.296875 -9.0625 22.0625 -8.984375 21.9375 -8.796875 C 20.515625 -6.359375 18.859375 -4.4375 15.3125 -3.046875 C 16.96875 -4.78125 18.359375 -7.5625 18.359375 -11.640625 C 18.359375 -15.84375 16.265625 -19.75 12.296875 -19.75 C 11.6875 -19.75 10.484375 -18.859375 9.0625 -17.359375 C 9.875 -20.515625 10.953125 -24.53125 10.953125 -25.53125 C 10.953125 -26.875 9.0625 -27.765625 7.40625 -27.765625 C 5.703125 -22.640625 4.015625 -15.6875 2.46875 -8.90625 C -1.703125 -2.703125 -5.515625 4.890625 -5.515625 9.90625 C -5.515625 13 -3.3125 15.1875 -0.84375 15.1875 C 2.65625 15.1875 5.28125 -1.125 7.984375 -13 C 10.140625 -15.65625 11.921875 -17.4375 12.5 -17.578125 C 13.5 -17.125 14 -14.84375 14 -12.875 C 14 -9.0625 11.34375 -3.234375 7.28125 -3.234375 C 6.78125 -3.234375 6.59375 -3.203125 6.59375 -2.78125 C 6.59375 -1.84375 8.515625 -0.578125 11.109375 -0.578125 C 15.265625 -0.578125 20.75 -2.125 23.640625 -7.984375 C 23.90625 -8.5625 23.140625 -9.0625 22.515625 -9.0625 Z M -2.546875 12.375 C -3.125 11.609375 -3.390625 10.765625 -3.390625 9.53125 C -3.390625 5.9375 -1.421875 1.265625 1.15625 -3.15625 C -0.3125 3.390625 -1.578125 9.25 -2.546875 12.375 Z M -2.546875 12.375 "/></g></g></g><g fill="#2b6b6e" fill-opacity="1"><g transform="translate(132.661474, 284.910171)"><g><path d="M 8.09375 -22.09375 C 9.71875 -22.09375 10.90625 -23.015625 11.640625 -24.484375 L 12.375 -25.90625 C 13 -27.140625 13.296875 -27.71875 13.296875 -28.109375 C 13.296875 -29.53125 10.71875 -30.15625 8.71875 -30.15625 C 7.5625 -26.875 6.828125 -24.875 6.828125 -23.25 C 6.828125 -22.828125 6.859375 -22.515625 6.90625 -22.296875 C 7.328125 -22.171875 7.59375 -22.09375 8.09375 -22.09375 Z M 7.515625 -0.078125 C 9.75 -0.078125 12.953125 -4.59375 14.53125 -7.984375 C 14.84375 -8.640625 14.078125 -9.09375 13.453125 -9.09375 C 13.1875 -9.09375 12.953125 -9.03125 12.84375 -8.796875 C 11.796875 -6.90625 10.0625 -4.234375 7.25 -2 C 6.984375 -2.46875 6.859375 -2.96875 6.859375 -3.859375 C 6.859375 -7.59375 7.90625 -10.53125 8.984375 -13.609375 C 9.40625 -14.8125 9.75 -15.734375 9.75 -16.265625 C 9.75 -17.78125 7.59375 -18.78125 5.4375 -18.78125 C 5.125 -17.8125 4.78125 -16.859375 4.46875 -15.921875 C 3.125 -12.109375 1.96875 -8.75 1.96875 -6.046875 C 1.96875 -4.515625 2.359375 -3.234375 3.78125 -1.96875 C 5.09375 -0.765625 6.203125 -0.078125 7.515625 -0.078125 Z M 7.515625 -0.078125 "/></g></g></g><g fill="#2b6b6e" fill-opacity="1"><g transform="translate(143.071214, 284.910171)"><g><path d="M 23.015625 -9.09375 C 22.796875 -9.09375 22.5625 -9.03125 22.4375 -8.796875 C 21.25 -6.5625 19.359375 -3.4375 17.3125 -2.046875 C 16.890625 -2.890625 16.8125 -3.546875 16.8125 -4.515625 C 16.8125 -9.0625 18.59375 -12.765625 18.59375 -16.5 C 18.59375 -18.203125 16.5 -19.828125 15.3125 -19.828125 C 12.796875 -19.828125 9.671875 -16.3125 7.40625 -11.875 C 7.75 -13.8125 8.21875 -16.8125 8.21875 -17.125 C 8.21875 -18.59375 6.625 -19.390625 4.703125 -19.390625 C 3.890625 -15.46875 1.890625 -7.796875 1.890625 -3.859375 C 1.890625 -3.078125 1.890625 -2.125 2.203125 -1.578125 C 2.859375 -0.421875 4.125 0.15625 5.328125 0.15625 C 6.171875 0.15625 6.484375 -0.1875 6.484375 -1.234375 C 6.484375 -1.703125 6.515625 -2.234375 6.59375 -2.65625 C 8.0625 -9.484375 11.484375 -16.078125 14.265625 -17.203125 C 14.265625 -16.5 12.1875 -10.984375 12.1875 -5.09375 C 12.1875 -2.65625 14.5 0.3125 17.46875 0.3125 C 19.671875 0.3125 22.515625 -4.390625 24.140625 -7.984375 C 24.375 -8.59375 23.640625 -9.09375 23.015625 -9.09375 Z M 23.015625 -9.09375 "/></g></g></g><g fill="#2b6b6e" fill-opacity="1"><g transform="translate(163.081058, 284.910171)"><g><path d="M 18.9375 -9.09375 C 18.671875 -9.09375 18.4375 -9.03125 18.3125 -8.796875 C 15.765625 -4.234375 11.84375 -1.8125 9.453125 -1.8125 C 8.671875 -1.8125 7.359375 -3.015625 7.359375 -6.484375 C 7.359375 -7.5625 7.4375 -8.5625 7.59375 -9.453125 C 8.4375 -9.25 9.25 -9.140625 9.984375 -9.140625 C 13.375 -9.140625 15.578125 -11.0625 15.578125 -14.5 C 15.578125 -17.46875 14.234375 -18.8125 13.34375 -19.3125 C 12.84375 -19.625 12.0625 -19.75 11.765625 -19.75 C 11.5625 -19.75 11.421875 -19.703125 11.296875 -19.671875 C 10.484375 -19.828125 9.640625 -19.9375 9.140625 -19.9375 C 7.328125 -19.9375 2.421875 -15.421875 2.421875 -8.21875 C 2.421875 -1.390625 7.640625 0.46875 9.90625 0.46875 C 13.6875 0.46875 18.15625 -4.015625 19.96875 -7.90625 C 20.28125 -8.515625 19.546875 -9.09375 18.9375 -9.09375 Z M 10.84375 -16.546875 C 11.0625 -16.8125 11.296875 -17.078125 11.484375 -17.28125 C 11.796875 -16.578125 12 -15.765625 12 -14.8125 C 12 -12.140625 10.796875 -11.1875 8.4375 -11.1875 C 8.296875 -11.1875 8.140625 -11.1875 7.9375 -11.21875 C 8.71875 -13.921875 10.03125 -15.546875 10.84375 -16.546875 Z M 10.84375 -16.546875 "/></g></g></g><g fill="#2b6b6e" fill-opacity="1"><g transform="translate(178.96556, 284.910171)"><g/></g></g><g fill="#2b6b6e" fill-opacity="1"><g transform="translate(188.604208, 284.910171)"><g><path d="M 25.328125 -37.953125 C 24.796875 -37.09375 23.875 -34.59375 23.0625 -31.65625 C 22.015625 -34.625 20.203125 -35.484375 18.8125 -35.484375 C 17.28125 -35.484375 15.109375 -35.09375 13.734375 -34.390625 C 9.640625 -32.359375 2.9375 -24.21875 2.9375 -13.234375 C 2.9375 -1.125 11.375 3.078125 15 3.078125 C 18.859375 3.078125 22.828125 -2 22.828125 -5.125 C 22.828125 -6.171875 22.171875 -6.828125 21.515625 -6.984375 C 20.203125 -2.9375 17.3125 -0.03125 15.109375 0.46875 C 10.875 -0.734375 8.484375 -6.25 8.484375 -12.296875 C 8.484375 -22.71875 13.875 -30.125 18.8125 -33.234375 C 20.671875 -32.515625 21.828125 -29.609375 21.828125 -26.953125 C 21.828125 -26.71875 21.828125 -26.53125 21.78125 -26.296875 C 21.515625 -24.6875 21.328125 -23.140625 21.328125 -21.859375 L 21.328125 -21.359375 C 21.671875 -21.25 21.984375 -21.203125 22.328125 -21.203125 C 23.828125 -21.203125 25.265625 -22.25 25.875 -24.40625 C 26.71875 -27.375 27.6875 -32 27.6875 -35.703125 C 27.6875 -37.875 25.84375 -37.953125 25.328125 -37.953125 Z M 25.328125 -37.953125 "/></g></g></g><g fill="#2b6b6e" fill-opacity="1"><g transform="translate(212.161069, 284.910171)"><g><path d="M 18.15625 -9.09375 C 17.890625 -9.09375 17.65625 -9.03125 17.546875 -8.796875 C 14.734375 -3.65625 12 -1.203125 10.765625 -1.203125 C 10.71875 -1.546875 10.71875 -1.84375 10.71875 -2.15625 C 10.71875 -6.4375 13.875 -10.84375 13.875 -12.421875 C 13.875 -13.453125 12.453125 -15.109375 11.265625 -15.3125 C 10.296875 -15.46875 9.03125 -15.578125 7.671875 -15.921875 C 8.515625 -18.078125 9.171875 -19.890625 9.171875 -20.359375 C 9.171875 -21.09375 6.625 -21.859375 5.9375 -21.859375 C 4.671875 -21.859375 2.9375 -19.046875 2.9375 -17.203125 C 2.9375 -16.125 3.3125 -15.078125 4.703125 -14.34375 C 3.78125 -11.796875 3.203125 -10.453125 2.390625 -8.71875 C 2.203125 -8.25 3.078125 -7.5625 3.625 -7.5625 C 3.78125 -7.5625 3.9375 -7.59375 4.015625 -7.75 C 4.75 -9.140625 5.75 -11.375 6.671875 -13.53125 C 7.484375 -13.265625 8.25 -13 8.984375 -12.765625 C 7.09375 -8.40625 6.515625 -6.015625 6.515625 -3.96875 C 6.515625 -1.84375 8.796875 0.890625 11.1875 0.890625 C 14.03125 0.890625 17.703125 -4.4375 19.203125 -7.90625 C 19.546875 -8.5625 18.78125 -9.09375 18.15625 -9.09375 Z M 18.15625 -9.09375 "/></g></g></g><g fill="#2b6b6e" fill-opacity="1"><g transform="translate(227.274479, 284.910171)"><g><path d="M 18.9375 -9.09375 C 18.671875 -9.09375 18.4375 -9.03125 18.3125 -8.796875 C 15.765625 -4.234375 11.84375 -1.8125 9.453125 -1.8125 C 8.671875 -1.8125 7.359375 -3.015625 7.359375 -6.484375 C 7.359375 -7.5625 7.4375 -8.5625 7.59375 -9.453125 C 8.4375 -9.25 9.25 -9.140625 9.984375 -9.140625 C 13.375 -9.140625 15.578125 -11.0625 15.578125 -14.5 C 15.578125 -17.46875 14.234375 -18.8125 13.34375 -19.3125 C 12.84375 -19.625 12.0625 -19.75 11.765625 -19.75 C 11.5625 -19.75 11.421875 -19.703125 11.296875 -19.671875 C 10.484375 -19.828125 9.640625 -19.9375 9.140625 -19.9375 C 7.328125 -19.9375 2.421875 -15.421875 2.421875 -8.21875 C 2.421875 -1.390625 7.640625 0.46875 9.90625 0.46875 C 13.6875 0.46875 18.15625 -4.015625 19.96875 -7.90625 C 20.28125 -8.515625 19.546875 -9.09375 18.9375 -9.09375 Z M 10.84375 -16.546875 C 11.0625 -16.8125 11.296875 -17.078125 11.484375 -17.28125 C 11.796875 -16.578125 12 -15.765625 12 -14.8125 C 12 -12.140625 10.796875 -11.1875 8.4375 -11.1875 C 8.296875 -11.1875 8.140625 -11.1875 7.9375 -11.21875 C 8.71875 -13.921875 10.03125 -15.546875 10.84375 -16.546875 Z M 10.84375 -16.546875 "/></g></g></g><g fill="#2b6b6e" fill-opacity="1"><g transform="translate(243.158981, 284.910171)"><g><path d="M 23.671875 -9.09375 C 23.40625 -9.09375 23.21875 -8.984375 23.09375 -8.796875 C 21.515625 -5.859375 19.046875 -1.734375 17.3125 -1.15625 C 17.15625 -1.734375 17.078125 -2.28125 17.078125 -2.859375 C 17.078125 -7.515625 18.703125 -12.375 19.9375 -15.734375 C 20.25 -16.546875 20.28125 -16.734375 20.28125 -16.96875 C 20.28125 -18.390625 18.78125 -20.046875 17.125 -20.046875 C 16.890625 -19.703125 16.625 -19.171875 15.421875 -16.390625 C 14.765625 -17.390625 14.078125 -18.078125 13.1875 -18.515625 C 12.34375 -18.9375 9.984375 -19.859375 8.640625 -19.859375 C 7.328125 -19.859375 6.828125 -19.390625 5.828125 -18.015625 C 3.65625 -15 2.078125 -10.484375 2.078125 -5.9375 C 2.078125 -3.046875 2.890625 -0.96875 5.90625 0.234375 C 6.171875 0.34375 6.671875 0.46875 7.140625 0.46875 C 9.03125 0.46875 11.34375 -2.890625 12.921875 -5.75 L 12.921875 -5.703125 C 12.921875 -4.59375 12.953125 -3.515625 13.296875 -2.390625 C 13.84375 -0.578125 15.921875 1.078125 17.65625 1.078125 C 19.671875 1.078125 23.21875 -4.46875 24.796875 -7.984375 C 25.03125 -8.5625 24.328125 -9.09375 23.671875 -9.09375 Z M 6.90625 -1.546875 C 6.59375 -2.359375 6.515625 -3.125 6.515625 -3.859375 C 6.515625 -8.484375 8.515625 -14.265625 11.109375 -17.546875 C 12.609375 -16.203125 13.296875 -14.53125 14.15625 -13.453125 C 13.921875 -12.921875 13.6875 -12.296875 13.421875 -11.6875 C 11.875 -7.984375 9.640625 -4.09375 6.90625 -1.546875 Z M 6.90625 -1.546875 "/></g></g></g><g fill="#2b6b6e" fill-opacity="1"><g transform="translate(263.824251, 284.910171)"><g><path d="M 13.53125 -9.0625 C 13.265625 -9.0625 13 -8.953125 12.875 -8.71875 C 11.0625 -5.28125 8.671875 -2.8125 6.703125 -1.84375 C 6.703125 -7.5625 8.375 -14.34375 9.796875 -19.359375 C 11.953125 -19.515625 14.15625 -19.859375 14.578125 -20.515625 C 14.078125 -21.9375 12.6875 -22.90625 10.90625 -22.90625 L 10.796875 -22.90625 C 11.34375 -24.71875 11.6875 -25.953125 11.6875 -26.375 C 11.6875 -27.765625 10.375 -29.234375 8.0625 -29.421875 C 7.4375 -27.109375 6.625 -24.6875 5.828125 -22.171875 C 4.96875 -22.015625 4.125 -21.90625 3.359375 -21.90625 C 2.078125 -21.90625 0.96875 -22.40625 0.609375 -22.40625 C 0.46875 -22.40625 0.15625 -22.359375 -0.078125 -22.171875 C 1.15625 -20.25 2 -19.78125 4.96875 -19.46875 C 3.515625 -14.8125 2.234375 -9.953125 2.234375 -5.28125 C 2.234375 -2.546875 4.359375 0.96875 6.5625 0.96875 C 8.984375 0.96875 12.84375 -4.171875 14.609375 -7.984375 C 14.84375 -8.5625 14.15625 -9.0625 13.53125 -9.0625 Z M 13.53125 -9.0625 "/></g></g></g><g fill="#2b6b6e" fill-opacity="1"><g transform="translate(274.311113, 284.910171)"><g><path d="M 8.09375 -22.09375 C 9.71875 -22.09375 10.90625 -23.015625 11.640625 -24.484375 L 12.375 -25.90625 C 13 -27.140625 13.296875 -27.71875 13.296875 -28.109375 C 13.296875 -29.53125 10.71875 -30.15625 8.71875 -30.15625 C 7.5625 -26.875 6.828125 -24.875 6.828125 -23.25 C 6.828125 -22.828125 6.859375 -22.515625 6.90625 -22.296875 C 7.328125 -22.171875 7.59375 -22.09375 8.09375 -22.09375 Z M 7.515625 -0.078125 C 9.75 -0.078125 12.953125 -4.59375 14.53125 -7.984375 C 14.84375 -8.640625 14.078125 -9.09375 13.453125 -9.09375 C 13.1875 -9.09375 12.953125 -9.03125 12.84375 -8.796875 C 11.796875 -6.90625 10.0625 -4.234375 7.25 -2 C 6.984375 -2.46875 6.859375 -2.96875 6.859375 -3.859375 C 6.859375 -7.59375 7.90625 -10.53125 8.984375 -13.609375 C 9.40625 -14.8125 9.75 -15.734375 9.75 -16.265625 C 9.75 -17.78125 7.59375 -18.78125 5.4375 -18.78125 C 5.125 -17.8125 4.78125 -16.859375 4.46875 -15.921875 C 3.125 -12.109375 1.96875 -8.75 1.96875 -6.046875 C 1.96875 -4.515625 2.359375 -3.234375 3.78125 -1.96875 C 5.09375 -0.765625 6.203125 -0.078125 7.515625 -0.078125 Z M 7.515625 -0.078125 "/></g></g></g><g fill="#2b6b6e" fill-opacity="1"><g transform="translate(284.720841, 284.910171)"><g><path d="M 20.59375 -13.6875 C 19.75 -12.34375 18.890625 -11.84375 18.15625 -11.84375 C 17.5 -11.84375 17 -11.953125 16.546875 -12.53125 C 17.203125 -14.265625 17.625 -15.8125 17.625 -17.046875 C 17.625 -18.390625 17 -20.203125 14.734375 -20.203125 C 13 -20.203125 12.296875 -18.703125 12.296875 -16.8125 C 12.296875 -15.046875 12.796875 -13.578125 13.53125 -12.421875 C 11.875 -9.03125 9.09375 -4.390625 6.203125 -1.890625 C 7.09375 -7.140625 7.828125 -12.140625 7.828125 -15.3125 C 7.828125 -18.046875 7.28125 -19.46875 4.890625 -19.46875 C 4.3125 -19.46875 3.390625 -19.390625 2.734375 -19.171875 C 3.078125 -18.015625 3.15625 -17.4375 3.15625 -16.203125 C 3.15625 -12.140625 2 -7.28125 2 -3.703125 C 2 -3.359375 2 -3.015625 2.046875 -2.703125 C 2.15625 -1.34375 4.75 0.65625 6.171875 0.65625 C 8.515625 0.65625 12.953125 -5.046875 15.578125 -10.375 C 16.46875 -9.828125 17.359375 -9.53125 18.125 -9.53125 C 20.015625 -9.53125 21.25 -11.296875 21.25 -12.6875 C 21.25 -13.234375 21.015625 -13.6875 20.59375 -13.6875 Z M 20.59375 -13.6875 "/></g></g></g><g fill="#2b6b6e" fill-opacity="1"><g transform="translate(301.646308, 284.910171)"><g><path d="M 18.9375 -9.09375 C 18.671875 -9.09375 18.4375 -9.03125 18.3125 -8.796875 C 15.765625 -4.234375 11.84375 -1.8125 9.453125 -1.8125 C 8.671875 -1.8125 7.359375 -3.015625 7.359375 -6.484375 C 7.359375 -7.5625 7.4375 -8.5625 7.59375 -9.453125 C 8.4375 -9.25 9.25 -9.140625 9.984375 -9.140625 C 13.375 -9.140625 15.578125 -11.0625 15.578125 -14.5 C 15.578125 -17.46875 14.234375 -18.8125 13.34375 -19.3125 C 12.84375 -19.625 12.0625 -19.75 11.765625 -19.75 C 11.5625 -19.75 11.421875 -19.703125 11.296875 -19.671875 C 10.484375 -19.828125 9.640625 -19.9375 9.140625 -19.9375 C 7.328125 -19.9375 2.421875 -15.421875 2.421875 -8.21875 C 2.421875 -1.390625 7.640625 0.46875 9.90625 0.46875 C 13.6875 0.46875 18.15625 -4.015625 19.96875 -7.90625 C 20.28125 -8.515625 19.546875 -9.09375 18.9375 -9.09375 Z M 10.84375 -16.546875 C 11.0625 -16.8125 11.296875 -17.078125 11.484375 -17.28125 C 11.796875 -16.578125 12 -15.765625 12 -14.8125 C 12 -12.140625 10.796875 -11.1875 8.4375 -11.1875 C 8.296875 -11.1875 8.140625 -11.1875 7.9375 -11.21875 C 8.71875 -13.921875 10.03125 -15.546875 10.84375 -16.546875 Z M 10.84375 -16.546875 "/></g></g></g></svg>