<svg width="111" height="111" viewBox="0 0 111 111" fill="none" xmlns="http://www.w3.org/2000/svg">
<mask id="mask0_2_111" style="mask-type:luminance" maskUnits="userSpaceOnUse" x="26" y="17" width="30" height="59">
<path d="M26.64 17.76H55.648V75.776H26.64V17.76Z" fill="white"/>
</mask>
<g mask="url(#mask0_2_111)">
<mask id="mask1_2_111" style="mask-type:luminance" maskUnits="userSpaceOnUse" x="26" y="17" width="30" height="59">
<path d="M26.6548 75.7041L26.6235 17.7621L55.4835 17.7459L55.5148 75.6879L26.6548 75.7041Z" fill="white"/>
</mask>
<g mask="url(#mask1_2_111)">
<mask id="mask2_2_111" style="mask-type:luminance" maskUnits="userSpaceOnUse" x="26" y="17" width="69" height="59">
<path d="M26.655 75.7043L26.6238 17.7623L94.7778 17.7253L94.809 75.6673L26.655 75.7043Z" fill="white"/>
</mask>
<g mask="url(#mask2_2_111)">
<path d="M26.64 46.783C26.6481 62.7277 39.6258 75.6916 55.5705 75.6835L94.6865 75.6627C94.7489 75.6627 94.7998 75.6118 94.7998 75.5494L94.7686 17.9462C94.7686 17.8837 94.7177 17.8329 94.6552 17.8329L55.5393 17.8537C39.5946 17.8606 26.6307 30.8407 26.64 46.783ZM94.5419 18.0595L94.5731 75.4361L55.5705 75.4569C39.7507 75.465 26.8747 62.6029 26.8666 46.783C26.8574 30.9644 39.7206 18.0872 55.5393 18.0791L94.5419 18.0583V18.0595Z" fill="#E1DDCC"/>
</g>
</g>
</g>
<mask id="mask3_2_111" style="mask-type:luminance" maskUnits="userSpaceOnUse" x="29" y="20" width="27" height="54">
<path d="M29.008 20.128H55.648V73.112H29.008V20.128Z" fill="white"/>
</mask>
<g mask="url(#mask3_2_111)">
<mask id="mask4_2_111" style="mask-type:luminance" maskUnits="userSpaceOnUse" x="26" y="17" width="30" height="59">
<path d="M26.655 75.7043L26.6238 17.7623L55.4838 17.7462L55.515 75.6882L26.655 75.7043Z" fill="white"/>
</mask>
<g mask="url(#mask4_2_111)">
<mask id="mask5_2_111" style="mask-type:luminance" maskUnits="userSpaceOnUse" x="26" y="17" width="69" height="59">
<path d="M26.655 75.704L26.6238 17.762L94.7778 17.725L94.809 75.667L26.655 75.704Z" fill="white"/>
</mask>
<g mask="url(#mask5_2_111)">
<path d="M55.5405 20.4263L92.1971 20.4067L92.226 73.09L55.5694 73.1097C41.0203 73.1178 29.2207 61.331 29.2138 46.7819C29.2057 32.2351 40.9925 20.4344 55.5405 20.4263Z" fill="#2B6B6E"/>
</g>
</g>
</g>
<path d="M59.3341 48.7811C59.9828 50.475 60.1065 52.3677 58.0519 52.3677C54.8132 52.3677 56.98 47.7092 58.0519 46.4766C58.438 46.9241 58.9607 47.8214 59.3341 48.7811ZM58.0519 45.1805C61.2905 45.1805 59.1225 40.522 58.0519 39.2894C56.98 40.522 54.8132 45.1805 58.0519 45.1805ZM60.0452 47.9092C60.0452 47.9092 63.0214 49.3291 62.7347 43.6739C62.7347 43.6739 59.8706 44.4208 60.0452 47.9092ZM57.8773 34.4436C57.8773 34.4436 60.8546 35.8646 60.5679 30.2094C60.5679 30.2221 57.7154 30.9563 57.8773 34.4436ZM61.6143 34.8679C61.6143 34.8679 59.0601 35.6646 59.0601 38.7668C59.0601 38.7668 61.6143 40.4977 61.6143 34.8679ZM60.7922 42.6645C63.1463 42.6645 63.0711 39.1275 63.0711 39.1275C60.2314 39.4386 60.7922 42.6645 60.7922 42.6645ZM57.8403 30.2464C60.1944 30.2464 60.1192 25.7254 60.1192 25.7254C57.2795 26.0365 57.8403 30.2464 57.8403 30.2464ZM57.9397 21.7398C57.4541 23.0718 58.0021 24.5044 58.0021 24.5044C60.0822 23.3089 57.9397 21.7398 57.9397 21.7398ZM66.7584 39.5761C66.7584 39.5761 63.8562 44.3087 65.9363 48.3324C65.9363 48.3324 69.0374 43.2877 66.7584 39.5761ZM66.5965 48.4191C68.3529 48.507 73.4219 48.1833 73.4219 41.4446C73.4219 41.4446 67.717 45.7286 66.023 48.3324C65.986 48.3324 65.9606 48.3197 65.9236 48.3197C65.9236 48.3197 67.4314 53.2268 72.6877 53.8246C72.6992 53.8373 71.691 49.3291 66.5965 48.4191ZM56.7569 36.4496C56.7441 36.4126 56.7187 36.3618 56.706 36.3248C56.669 36.2381 56.632 36.1629 56.6065 36.0877C56.5695 36.0137 56.5325 35.9259 56.4944 35.8519C56.4574 35.7767 56.4204 35.7027 56.3822 35.6276C56.0966 35.0668 55.7845 34.5939 55.5359 34.3071C55.2861 34.5939 54.9751 35.0668 54.6883 35.6276C54.6513 35.7027 54.6143 35.7767 54.5762 35.8519C54.5392 35.9259 54.5022 36.0137 54.464 36.0877C54.427 36.1629 54.39 36.2508 54.3646 36.3248C54.353 36.3618 54.3276 36.4126 54.3149 36.4496C53.6176 38.1806 53.4188 40.1866 55.5486 40.1866C57.6784 40.1866 57.4414 38.1806 56.7569 36.4496ZM55.5231 34.1082C57.6402 34.1082 57.4414 32.1021 56.7569 30.3712C56.7441 30.3342 56.7187 30.2845 56.706 30.2464C56.669 30.1596 56.632 30.0845 56.6065 30.0105C56.5695 29.9353 56.5325 29.8475 56.4944 29.7735C56.4574 29.6983 56.4204 29.6243 56.3822 29.5491C56.0966 28.9884 55.7845 28.5155 55.5359 28.2287C55.2861 28.5155 54.9751 28.9884 54.6883 29.5491C54.6513 29.6243 54.6143 29.6983 54.5762 29.7735C54.5392 29.8475 54.5022 29.9353 54.464 30.0105C54.427 30.0845 54.39 30.1724 54.3646 30.2464C54.353 30.2845 54.3276 30.3342 54.3149 30.3712C53.6049 32.0906 53.406 34.1082 55.5231 34.1082ZM55.5231 28.0171C57.6402 28.0171 57.4414 26.0122 56.7569 24.2801C56.7441 24.2431 56.7187 24.1934 56.706 24.1552C56.669 24.0685 56.632 23.9934 56.6065 23.9194C56.5695 23.8442 56.5325 23.7575 56.4944 23.6823C56.4574 23.6072 56.4204 23.5332 56.3822 23.458C56.0966 22.8972 55.7845 22.4243 55.5359 22.1376C55.2861 22.4243 54.9751 22.8972 54.6883 23.458C54.6513 23.5332 54.6143 23.6072 54.5762 23.6823C54.5392 23.7575 54.5022 23.8442 54.464 23.9194C54.427 23.9934 54.39 24.0812 54.3646 24.1552C54.353 24.1934 54.3276 24.2431 54.3149 24.2801C53.6049 26.0122 53.406 28.0171 55.5231 28.0171ZM52.9944 45.1805C56.2331 45.1805 54.0663 40.522 52.9944 39.2894C51.9365 40.522 49.7685 45.1805 52.9944 45.1805ZM48.3116 43.6739C48.0249 49.3291 51.0022 47.9092 51.0022 47.9092C51.1768 44.4208 48.3116 43.6739 48.3116 43.6739ZM53.169 34.4436C53.3309 30.9563 50.4784 30.2094 50.4784 30.2094C50.1928 35.8646 53.169 34.4436 53.169 34.4436ZM49.4447 34.8679C49.4447 40.4977 51.9989 38.7668 51.9989 38.7668C51.9862 35.6646 49.4447 34.8679 49.4447 34.8679ZM50.2541 42.6645C50.2541 42.6645 50.8149 39.4386 47.9751 39.1275C47.9751 39.1275 47.9 42.6645 50.2541 42.6645ZM53.206 30.2464C53.206 30.2464 53.7668 26.0365 50.927 25.7254C50.927 25.7254 50.8519 30.2464 53.206 30.2464ZM51.7121 48.7811C51.0646 50.475 50.9398 52.3677 52.9944 52.3677C56.2331 52.3677 54.0663 47.7092 52.9944 46.4766C52.6082 46.9241 52.0856 47.8214 51.7121 48.7811ZM45.11 48.3324C47.19 44.3087 44.2879 39.5761 44.2879 39.5761C42.0089 43.2877 45.11 48.3324 45.11 48.3324ZM37.6244 41.4446C37.6244 48.1833 42.6934 48.507 44.4497 48.4191C39.368 49.3291 38.347 53.8246 38.347 53.8246C43.6034 53.2268 45.11 48.3197 45.11 48.3197C45.073 48.3197 45.0475 48.3324 45.0105 48.3324C43.3293 45.7286 37.6244 41.4446 37.6244 41.4446ZM53.0441 24.4917C53.0441 24.4917 53.6049 23.0591 53.1066 21.7271C53.1066 21.7398 50.9768 23.3089 53.0441 24.4917ZM55.5231 21.9514C57.8275 21.9514 56.2828 19.0492 55.5231 18.1774C54.7635 19.0492 53.2187 21.9514 55.5231 21.9514Z" fill="#E1DDCC"/>
<mask id="mask6_2_111" style="mask-type:luminance" maskUnits="userSpaceOnUse" x="37" y="17" width="37" height="59">
<path d="M37.3261 17.76H73.704V75.7009H37.3261V17.76Z" fill="white"/>
</mask>
<g mask="url(#mask6_2_111)">
<path d="M68.2026 48.6064C69.2247 48.4689 70.4457 48.0954 71.4794 47.2236C72.9363 45.991 73.6716 44.0474 73.6716 41.4562C73.6716 41.3568 73.6208 41.27 73.534 41.2319C73.4473 41.1949 73.3467 41.1949 73.2727 41.2573C73.0727 41.4065 69.249 44.2844 66.9827 46.7622C67.7297 44.9192 68.4893 41.9303 66.97 39.4513C66.9203 39.3761 66.8451 39.3264 66.7584 39.3264C66.6705 39.3264 66.5965 39.3761 66.5468 39.4513C66.422 39.6501 63.6192 44.2971 65.6866 48.3949C64.8529 51.0346 62.6722 53.2268 60.5679 55.3324C58.7248 57.1754 56.8436 59.0809 55.7729 61.3229V54.3357C56.5568 54.2987 57.4286 54.0489 58.201 52.629C59.1977 52.5793 59.6336 52.0937 59.8209 51.6832C60.1562 50.9479 59.9828 49.8887 59.6209 48.8932C59.7828 48.7556 60.0325 48.5313 60.1817 48.2445C60.3435 48.2943 60.5551 48.3324 60.8049 48.3324C61.1032 48.3324 61.4524 48.2573 61.7889 48.0457C62.6977 47.4479 63.0966 45.9783 62.9717 43.6866C62.9717 43.6114 62.9347 43.5363 62.8723 43.4993C62.8098 43.4623 62.7347 43.4369 62.6607 43.4623C62.6352 43.475 59.6336 44.2844 59.7828 47.8965C59.7203 48.0827 59.5712 48.2573 59.422 48.3949C59.0485 47.5103 58.5745 46.7252 58.2265 46.3263C58.127 46.2142 57.9397 46.2142 57.853 46.3263C57.0679 47.2363 55.5729 50.1512 56.2701 51.6705C56.4447 52.044 56.8181 52.4926 57.6287 52.592C57.0182 53.5887 56.395 53.7876 55.7602 53.813V47.286C56.2088 47.1981 57.1928 46.8374 58.164 45.4302C59.1723 45.3921 59.6082 44.8949 59.7955 44.4833C59.9076 44.2347 59.9574 43.9479 59.9701 43.6484C60.2071 43.5744 60.5679 43.3999 60.9043 42.9142C61.4524 42.8888 61.9126 42.6772 62.2988 42.291C63.3325 41.2319 63.3082 39.2142 63.2955 39.1275C63.2955 39.0524 63.2585 38.9899 63.2087 38.9402C63.159 38.8905 63.0839 38.8778 63.0214 38.8778C62.1866 38.9656 61.5391 39.3148 61.0905 39.8872C60.3563 40.8711 60.4557 42.217 60.5054 42.602C60.2938 42.9015 60.095 43.0379 59.9446 43.1131C59.8209 41.98 59.2347 40.6838 58.6994 39.812C58.8867 39.6883 59.0983 39.4767 59.2104 39.1275C59.385 39.1899 59.6082 39.2639 59.8579 39.2639C60.0568 39.2639 60.2811 39.2269 60.5054 39.1021C61.3772 38.6419 61.8259 37.2093 61.8259 34.8552C61.8259 34.78 61.7889 34.706 61.7264 34.6563C61.664 34.6066 61.5773 34.5939 61.5021 34.6181C61.4767 34.6309 58.7861 35.5027 58.7745 38.7413C58.7491 39.1148 58.5629 39.3148 58.4126 39.4015C58.3386 39.2894 58.2635 39.2027 58.1883 39.1148C58.0889 39.0026 57.9027 39.0026 57.8148 39.1148C57.0309 40.0248 55.5359 42.9385 56.2331 44.459C56.4077 44.8324 56.7684 45.2556 57.5408 45.3805C56.7939 46.3518 56.0839 46.6628 55.722 46.7622V40.4225C56.6447 40.3485 57.0552 39.8744 57.2425 39.4767C57.6784 38.5043 57.2425 36.985 56.669 35.764C57.0425 35.6773 57.6032 35.4402 57.9524 34.7557C58.1143 34.8054 58.3386 34.8552 58.5872 34.8552C58.8867 34.8552 59.2347 34.78 59.5712 34.5684C60.4811 33.9706 60.8789 32.501 60.7552 30.2094C60.7552 30.1342 60.717 30.0602 60.6546 30.022C60.5921 29.9723 60.5181 29.9596 60.443 29.985C60.4187 29.9978 57.4286 30.8071 57.5662 34.4065C57.254 35.1292 56.6817 35.2911 56.4204 35.3165C56.2088 34.9303 55.996 34.5939 55.8099 34.3441C56.669 34.2447 57.0552 33.796 57.2298 33.4099C57.5038 32.8005 57.4414 31.9657 57.1928 31.1182C57.4286 31.0187 57.7651 30.8314 57.9397 30.5077C58.3883 30.4707 58.7861 30.2834 59.1225 29.948C60.3435 28.7143 60.3065 25.8619 60.3065 25.7497C60.3065 25.6757 60.2684 25.6133 60.2187 25.5635C60.169 25.5138 60.095 25.5011 60.0325 25.5011C59.3099 25.5763 58.7364 25.9 58.3005 26.4354C57.3049 27.7061 57.4784 29.8359 57.5281 30.2336C57.4414 30.4337 57.2298 30.5701 57.0552 30.6453C56.7187 29.6983 56.2204 28.7895 55.8226 28.2657C56.6817 28.1663 57.0679 27.7176 57.2425 27.3314C57.4784 26.8215 57.4668 26.1486 57.3165 25.4514C57.5165 25.3519 57.8403 25.1149 58.1883 24.6536C58.7618 24.2928 59.0728 23.8569 59.0983 23.3586C59.148 22.3873 58.0761 21.5779 58.0264 21.5398L57.7651 21.3409L57.653 21.6519C57.2043 22.8602 57.5535 24.1182 57.6784 24.4801C57.4784 24.716 57.3049 24.8536 57.18 24.9403C56.8563 23.8569 56.2701 22.7735 55.8226 22.1757C56.4204 22.0879 56.6944 21.7768 56.8181 21.5155C57.3165 20.4309 56.1464 18.5752 55.6607 18.0155L55.5231 17.7912L55.337 18.0028C54.8502 18.5636 53.6801 20.4194 54.1784 21.5028C54.3021 21.7641 54.5762 22.0751 55.174 22.163C54.7265 22.7608 54.1403 23.8442 53.8165 24.9276C53.6928 24.8409 53.5182 24.7033 53.3182 24.4674C53.443 24.0939 53.7922 22.8475 53.3436 21.6392L53.2315 21.3282L52.9701 21.5271C52.9204 21.5652 51.8486 22.3619 51.8983 23.3459C51.9237 23.8442 52.2348 24.2801 52.8083 24.642C53.169 25.1022 53.4928 25.3392 53.6801 25.4387C53.5309 26.1359 53.5182 26.7961 53.7541 27.3199C53.9287 27.7061 54.3149 28.1535 55.174 28.2541C54.7762 28.7768 54.2779 29.6856 53.9414 30.6325C53.7668 30.5574 53.5552 30.4209 53.4685 30.2221C53.5182 29.8232 53.6928 27.6934 52.6961 26.4226C52.2729 25.8746 51.6867 25.5635 50.964 25.4884C50.89 25.4757 50.8276 25.5011 50.7779 25.5508C50.7282 25.6005 50.69 25.663 50.69 25.7381C50.69 25.8619 50.653 28.7016 51.874 29.9353C52.2105 30.2718 52.6082 30.4579 53.0569 30.4961C53.2315 30.8314 53.5679 31.0187 53.805 31.1054C53.5679 31.9403 53.4928 32.7878 53.7668 33.3983C53.9414 33.7845 54.3276 34.2319 55.1867 34.3325C55.0005 34.5811 54.7889 34.9176 54.5762 35.3038C54.3149 35.2656 53.7425 35.1165 53.4303 34.3938C53.5679 30.7944 50.5779 29.985 50.5536 29.9723C50.4784 29.948 50.4044 29.9723 50.342 30.0105C50.2795 30.0602 50.2425 30.1215 50.2425 30.1966C50.1304 32.4883 50.5281 33.9579 51.4254 34.5557C51.7619 34.78 52.1099 34.8424 52.4094 34.8424C52.658 34.8424 52.8823 34.7927 53.0441 34.743C53.406 35.4287 53.9541 35.6773 54.3276 35.7524C53.7425 36.9723 53.3066 38.4927 53.7541 39.464C53.9414 39.8629 54.353 40.3358 55.2745 40.4109V46.7507C54.9126 46.6501 54.2027 46.339 53.4558 45.3678C54.2409 45.2429 54.6016 44.8197 54.7635 44.4463C55.4607 42.9142 53.9668 39.9993 53.1817 39.1021C53.0823 38.9899 52.895 38.9899 52.8083 39.1021C52.7331 39.1772 52.6707 39.2767 52.584 39.3888C52.4464 39.3021 52.2602 39.1021 52.222 38.7286C52.2105 35.4899 49.5326 34.6181 49.4945 34.6066C49.4205 34.5811 49.3326 34.5939 49.2701 34.6436C49.2077 34.6933 49.1707 34.7684 49.1707 34.8424C49.1707 37.1966 49.6193 38.6164 50.4911 39.0905C50.7155 39.2027 50.927 39.2524 51.1386 39.2524C51.3884 39.2524 51.6127 39.1899 51.7861 39.1148C51.8983 39.4767 52.1099 39.6883 52.2972 39.8004C51.7619 40.6595 51.1768 41.9673 51.0519 43.0888C50.9028 43.0137 50.7027 42.8645 50.4911 42.5778C50.5409 42.1916 50.6403 40.8469 49.9061 39.8629C49.4702 39.2767 48.8227 38.9402 47.9751 38.8535C47.9 38.8408 47.8387 38.8662 47.7878 38.9159C47.7381 38.9656 47.7011 39.0281 47.7011 39.1021C47.7011 39.1899 47.6641 41.2076 48.6978 42.2667C49.0713 42.6529 49.5442 42.8518 50.0922 42.8888C50.4287 43.3629 50.7906 43.549 51.0265 43.6242C51.0392 43.9225 51.0889 44.2092 51.2011 44.459C51.3884 44.8822 51.8359 45.3678 52.8325 45.4048C53.8165 46.8131 54.7889 47.1739 55.2364 47.2606V53.7876C54.6016 53.7506 53.9784 53.5633 53.3679 52.5666C54.1784 52.4544 54.5519 52.0185 54.7265 51.6451C55.4237 50.113 53.9287 47.1981 53.1447 46.302C53.0441 46.1899 52.858 46.1899 52.7701 46.302C52.4221 46.7009 51.948 47.4849 51.5745 48.3694C51.4254 48.233 51.2762 48.0457 51.2138 47.8711C51.363 44.2589 48.3613 43.4369 48.3359 43.4369C48.2619 43.4126 48.1867 43.4369 48.1243 43.475C48.0619 43.5247 48.0249 43.586 48.0249 43.6612C47.9127 45.9529 48.3116 47.4224 49.2077 48.0202C49.5442 48.2445 49.8934 48.307 50.1928 48.307C50.4414 48.307 50.6657 48.2573 50.8149 48.2203C50.964 48.507 51.2138 48.7429 51.3757 48.8678C51.0138 49.8644 50.8519 50.9224 51.1768 51.6578C51.363 52.0694 51.7989 52.5666 52.7955 52.6048C53.5679 54.0246 54.4397 54.2732 55.2248 54.3114V61.2986C54.1657 59.0566 52.2729 57.1627 50.4287 55.3069C48.3243 53.1898 46.1436 51.0103 45.31 48.3694C47.3646 44.2844 44.5619 39.6259 44.4497 39.4258C44.4 39.3518 44.326 39.3021 44.2381 39.3021C44.1514 39.3021 44.0763 39.3518 44.0265 39.4258C42.5072 41.9048 43.2669 44.8949 44.0138 46.7379C41.7476 44.2589 37.9239 41.3822 37.7238 41.2319C37.6498 41.1706 37.5492 41.1706 37.4625 41.2076C37.3758 41.2446 37.3261 41.3325 37.3261 41.4319C37.3261 44.0231 38.0603 45.9656 39.5183 47.1981C40.552 48.0711 41.7603 48.4446 42.794 48.581C38.9945 50.0633 38.1227 53.7379 38.11 53.7749C38.0973 53.85 38.11 53.9368 38.1725 53.9992C38.2222 54.0489 38.2846 54.0871 38.3598 54.0871C38.3713 54.0871 38.3713 54.0871 38.384 54.0871C42.5442 53.613 44.4497 50.4749 45.0857 49.0794C46.0569 51.5954 48.1243 53.6627 50.1304 55.6815C52.2475 57.8114 54.427 60.0036 55.2745 62.6688V75.4234C55.2745 75.5598 55.3867 75.6719 55.5231 75.6719C55.6607 75.6719 55.7729 75.5598 55.7729 75.4234V62.6688C56.6065 60.0036 58.7988 57.7986 60.917 55.6815C62.922 53.6627 64.9894 51.5826 65.9606 49.0794C66.6093 50.4749 68.502 53.613 72.6622 54.0871C72.675 54.0871 72.6877 54.0871 72.6877 54.0871C72.7617 54.0871 72.8241 54.0616 72.8738 53.9992C72.9235 53.9368 72.949 53.8628 72.9363 53.7749C72.9363 53.7379 72.0645 50.0633 68.2026 48.6064ZM62.4988 44.0231C62.5728 46.3888 62.0132 47.2733 61.5264 47.6098C61.0662 47.9208 60.5309 47.8086 60.2938 47.7346C60.2314 45.2429 61.8131 44.3087 62.4988 44.0231ZM56.7314 51.4589C56.2088 50.3004 57.2922 47.9208 58.0519 46.8871C58.8115 47.9208 59.8949 50.3131 59.3723 51.4589C59.1723 51.9064 58.7364 52.1191 58.0519 52.1191C57.3662 52.1191 56.9303 51.9064 56.7314 51.4589ZM61.5148 40.1866C61.8131 39.7877 62.249 39.5264 62.8098 39.4143C62.7844 39.9739 62.6352 41.2446 61.9507 41.943C61.6883 42.217 61.3772 42.3662 61.0038 42.4032C60.9783 41.9545 60.9668 40.9209 61.5148 40.1866ZM61.353 35.2414C61.3032 37.6198 60.7667 38.4176 60.3065 38.6662C59.9204 38.8662 59.5087 38.7159 59.3099 38.6164C59.3723 36.4739 60.717 35.5524 61.353 35.2414ZM56.7314 44.2717C56.2088 43.1131 57.2922 40.7347 58.0519 39.6999C58.8115 40.7347 59.8949 43.1258 59.3723 44.2717C59.1723 44.7203 58.7364 44.9319 58.0519 44.9319C57.3662 44.9319 56.9303 44.7076 56.7314 44.2717ZM60.3308 30.5574C60.406 32.9242 59.8452 33.8088 59.3596 34.1452C58.8982 34.4563 58.3629 34.3441 58.127 34.2701C58.0646 31.7784 59.659 30.8441 60.3308 30.5574ZM58.7618 26.7221C59.0485 26.3602 59.422 26.1243 59.8706 26.0237C59.8452 26.7591 59.696 28.7016 58.837 29.5734C58.6126 29.7977 58.3629 29.9353 58.0761 29.985C58.0264 29.3745 57.9894 27.7176 58.7618 26.7221ZM58.0646 22.1757C58.3502 22.4498 58.6751 22.8972 58.6496 23.3216C58.6369 23.6072 58.4623 23.8696 58.1386 24.1055C58.0391 23.7078 57.89 22.9481 58.0646 22.1757ZM52.3839 23.3216C52.3596 22.8729 52.7088 22.437 52.9701 22.1757C53.1447 22.9354 53.0071 23.695 52.895 24.1055C52.584 23.8696 52.4094 23.6072 52.3839 23.3216ZM51.1768 26.0237C51.6243 26.1243 51.9989 26.3602 52.2845 26.7221C53.0569 27.7061 53.0199 29.3745 52.9701 29.985C52.6834 29.9353 52.4348 29.8104 52.2105 29.5734C51.3502 28.7016 51.2011 26.7591 51.1768 26.0237ZM51.6867 34.1452C51.2011 33.8215 50.6403 32.9242 50.7155 30.5574C51.3884 30.8441 52.9829 31.7784 52.932 34.2701C52.6834 34.3568 52.1608 34.4563 51.6867 34.1452ZM50.7397 38.6662C50.2795 38.4176 49.7442 37.6198 49.6945 35.2414C50.3293 35.5524 51.674 36.4739 51.7364 38.6164C51.5375 38.7159 51.1259 38.8662 50.7397 38.6662ZM48.2365 39.4143C48.7972 39.5264 49.2331 39.7877 49.5326 40.1866C50.0807 40.9209 50.068 41.9545 50.0298 42.4032C49.6563 42.3662 49.3453 42.2043 49.084 41.943C48.411 41.2446 48.2619 39.9866 48.2365 39.4143ZM51.6867 44.2717C51.1641 43.1131 52.2475 40.7347 53.0071 39.6999C53.7668 40.7347 54.8502 43.1258 54.3276 44.2717C54.1287 44.7203 53.6928 44.9319 53.0071 44.9319C52.3226 44.9319 51.8867 44.7076 51.6867 44.2717ZM49.5326 47.6098C49.0458 47.286 48.4862 46.3888 48.5602 44.0231C49.2331 44.3087 50.8149 45.2684 50.7779 47.7346C50.5166 47.8086 49.9928 47.9208 49.5326 47.6098ZM51.6867 51.4589C51.1641 50.3004 52.2475 47.9208 53.0071 46.8871C53.7668 47.9208 54.8502 50.3131 54.3276 51.4589C54.1287 51.9064 53.6928 52.1191 53.0071 52.1191C52.3226 52.1191 51.8867 51.9064 51.6867 51.4589ZM44.2879 40.086C44.8741 41.2203 46.4061 44.6821 45.0984 47.7844C44.4625 46.5761 42.8437 42.9639 44.2879 40.086ZM39.8918 46.8374C38.6454 45.7783 37.9736 44.1468 37.8857 41.9673C39.1564 42.9512 43.0183 46.0153 44.5873 48.1578C44.5376 48.1705 44.4879 48.1705 44.4382 48.1833C43.4658 48.2203 41.4238 48.1324 39.8918 46.8374ZM38.6962 53.539C39.0443 52.4799 40.4017 49.4158 44.4625 48.6804C44.5619 48.6804 44.6498 48.6689 44.7238 48.6689C44.2509 49.7766 42.5824 52.9158 38.6962 53.539ZM54.6259 21.3039C54.3276 20.6553 54.9878 19.3105 55.5231 18.5752C56.0585 19.2978 56.706 20.6553 56.4204 21.3039C56.3707 21.4034 56.2331 21.7017 55.5231 21.7017C54.8132 21.7017 54.6768 21.4034 54.6259 21.3039ZM54.2027 27.1083C53.6801 25.9497 54.7635 23.5702 55.5231 22.5365C56.2828 23.5702 57.3662 25.9613 56.8436 27.1083C56.6447 27.5558 56.2088 27.7674 55.5231 27.7674C54.8386 27.7674 54.4143 27.5558 54.2027 27.1083ZM54.2027 33.1855C53.6801 32.0281 54.7635 29.6486 55.5231 28.6149C56.2828 29.6486 57.3662 32.0397 56.8436 33.1855C56.6447 33.6342 56.2088 33.8458 55.5231 33.8458C54.8386 33.8458 54.4143 33.6342 54.2027 33.1855ZM54.2027 39.2767C53.6801 38.1181 54.7635 35.7397 55.5231 34.706C56.2828 35.7397 57.3662 38.1308 56.8436 39.2767C56.6447 39.7253 56.2088 39.9369 55.5231 39.9369C54.8386 39.9369 54.4143 39.7253 54.2027 39.2767ZM73.1606 41.9673C73.0727 44.1468 72.4009 45.791 71.1556 46.8374C69.6236 48.1451 67.5805 48.2203 66.6093 48.1705C66.5595 48.1578 66.5087 48.1578 66.459 48.1451C68.0407 46.0153 71.9026 42.9385 73.1606 41.9673ZM66.7584 40.086C68.2026 42.9639 66.5838 46.5761 65.949 47.7844C64.6413 44.6821 66.1734 41.2203 66.7584 40.086ZM66.3225 48.6562C66.3965 48.6689 66.4844 48.6689 66.5838 48.6689C70.6573 49.4031 72.002 52.4672 72.3512 53.5263C68.465 52.9158 66.8081 49.7766 66.3225 48.6562Z" fill="#E1DDCC"/>
</g>
<path d="M24.3965 83.4408C25.5296 81.0589 26.635 75.8188 26.635 74.5978C26.635 73.8902 25.9736 73.5479 25.2891 73.5479C24.9792 75.7494 23.9201 81.6972 23.2587 83.4547C23.1061 83.4639 22.9488 83.4639 22.8008 83.4778C22.8471 84.3103 23.0043 84.6664 23.6102 84.6664C26.1771 84.6664 27.4582 84.6664 28.2583 84.0929C27.5692 83.6258 26.006 83.4547 24.3965 83.4408Z" fill="#E1DDCC"/>
<path d="M34.3845 81.6278C34.3151 81.6278 34.2458 81.6602 34.2134 81.7295C33.7324 82.599 33.1543 83.5795 32.7056 83.8432C32.5946 83.5934 32.5345 83.339 32.5345 83.0662C32.5345 82.007 32.923 80.3744 33.3901 79.2413C33.4133 79.1627 33.4271 79.0933 33.4271 79.0239C33.4271 78.5013 32.8074 78.3625 32.183 78.3625C32.1368 78.5013 32.0813 78.7187 32.0119 78.9823C31.0869 81.6509 30.4718 83.2512 29.5468 83.8062C29.556 81.7064 30.4486 79.0609 30.4486 78.8759C30.4486 78.4874 30.0139 78.4088 29.5005 78.4088C29.408 78.4088 29.2924 78.4227 29.2138 78.4458C28.964 79.084 28.2101 81.2994 28.2101 83.2512C28.2101 83.4315 28.2425 83.6165 28.3905 83.7877C28.668 84.0929 29.1444 84.5832 29.6346 84.5832C30.2544 84.5832 31.0638 83.3529 31.4846 82.3354C31.5309 83.1448 31.5771 83.8755 32.4559 84.3797C32.5946 84.4583 32.7426 84.4953 32.8768 84.4953C33.4271 84.4953 34.181 83.0985 34.7175 81.97C34.7823 81.8128 34.5695 81.6278 34.3845 81.6278Z" fill="#E1DDCC"/>
<path d="M40.1579 81.6509C40.0931 81.6509 40.0238 81.6741 39.9868 81.7296C39.5659 82.4511 39.0756 83.0199 38.0258 83.4316C38.516 82.9182 38.9276 82.0949 38.9276 80.8878C38.9276 79.6437 38.3079 78.4874 37.1331 78.4874C36.9528 78.4874 36.5966 78.7511 36.1758 79.1951C36.4163 78.2608 36.7354 77.0722 36.7354 76.7762C36.7354 76.3784 36.1758 76.1148 35.6855 76.1148C35.1814 77.6318 34.6819 79.6899 34.224 81.6972C32.9891 83.5333 31.8606 85.7811 31.8606 87.2657C31.8606 88.1814 32.5128 88.8289 33.2435 88.8289C34.2795 88.8289 35.0565 84.0004 35.8566 80.4854C36.4949 79.6992 37.0221 79.1719 37.1933 79.1303C37.4893 79.2644 37.6373 79.9397 37.6373 80.5224C37.6373 81.6509 36.851 83.3761 35.6485 83.3761C35.5005 83.3761 35.445 83.3853 35.445 83.5102C35.445 83.7877 36.0139 84.1623 36.7816 84.1623C38.0119 84.1623 39.6353 83.7044 40.4909 81.9701C40.5695 81.7989 40.3429 81.6509 40.1579 81.6509ZM32.7394 87.9964C32.5683 87.7698 32.4896 87.5201 32.4896 87.1547C32.4896 86.0909 33.0724 84.7081 33.8355 83.3992C33.4008 85.3371 33.0261 87.0714 32.7394 87.9964Z" fill="#E1DDCC"/>
<path d="M41.6636 77.7937C42.1446 77.7937 42.4961 77.5208 42.7134 77.086L42.9308 76.6652C43.1158 76.2998 43.2037 76.1287 43.2037 76.013C43.2037 75.5922 42.4406 75.4072 41.8486 75.4072C41.5063 76.3784 41.2889 76.9704 41.2889 77.4514C41.2889 77.5763 41.2982 77.6688 41.3121 77.7335C41.4369 77.7705 41.5156 77.7937 41.6636 77.7937ZM41.4924 84.3103C42.1538 84.3103 43.1019 82.9737 43.5691 81.97C43.6616 81.7758 43.4349 81.6417 43.2499 81.6417C43.1713 81.6417 43.1019 81.6602 43.0696 81.7295C42.7597 82.2892 42.2463 83.08 41.4138 83.7414C41.3352 83.6027 41.2982 83.4547 41.2982 83.191C41.2982 82.0857 41.6081 81.2162 41.9272 80.305C42.0521 79.9489 42.1538 79.676 42.1538 79.5188C42.1538 79.0702 41.5156 78.7742 40.8773 78.7742C40.7848 79.0609 40.6831 79.343 40.5906 79.6205C40.1928 80.749 39.8506 81.7434 39.8506 82.5435C39.8506 82.9968 39.9662 83.376 40.3871 83.7507C40.7756 84.1068 41.1039 84.3103 41.4924 84.3103Z" fill="#E1DDCC"/>
<path d="M49.1617 81.6417C49.097 81.6417 49.0276 81.6602 48.9906 81.7295C48.6391 82.3909 48.0795 83.3159 47.4736 83.7275C47.3487 83.4778 47.3256 83.2835 47.3256 82.9968C47.3256 81.6509 47.8528 80.5548 47.8528 79.4494C47.8528 78.9453 47.2331 78.4643 46.8816 78.4643C46.137 78.4643 45.212 79.5049 44.5413 80.8184C44.6431 80.2449 44.7818 79.3569 44.7818 79.2644C44.7818 78.8297 44.3101 78.5938 43.7412 78.5938C43.5007 79.7547 42.9087 82.0255 42.9087 83.191C42.9087 83.4223 42.9087 83.7044 43.0012 83.8663C43.1955 84.2085 43.5701 84.3797 43.9262 84.3797C44.176 84.3797 44.2685 84.2779 44.2685 83.968C44.2685 83.8293 44.2777 83.672 44.3008 83.5472C44.7356 81.526 45.7485 79.5743 46.5717 79.2413C46.5717 79.4494 45.9566 81.082 45.9566 82.8257C45.9566 83.5472 46.6411 84.4259 47.5198 84.4259C48.172 84.4259 49.0137 83.0338 49.4947 81.97C49.5641 81.7897 49.3467 81.6417 49.1617 81.6417Z" fill="#E1DDCC"/>
<path d="M53.8775 81.6417C53.7989 81.6417 53.7295 81.6602 53.6925 81.7296C52.9386 83.0801 51.7778 83.7969 51.0701 83.7969C50.8389 83.7969 50.4504 83.4408 50.4504 82.4141C50.4504 82.0949 50.4735 81.7989 50.5198 81.5353C50.7695 81.5954 51.01 81.6278 51.2274 81.6278C52.231 81.6278 52.8831 81.0589 52.8831 80.0414C52.8831 79.1627 52.4854 78.7649 52.2218 78.6169C52.0738 78.5244 51.8425 78.4874 51.7546 78.4874C51.6945 78.4874 51.6529 78.5013 51.6159 78.5106C51.3754 78.4643 51.1256 78.4319 50.9776 78.4319C50.4411 78.4319 48.9889 79.7686 48.9889 81.9007C48.9889 83.9218 50.5336 84.4722 51.2043 84.4722C52.3235 84.4722 53.6463 83.1448 54.1828 81.9932C54.2753 81.8128 54.0579 81.6417 53.8775 81.6417ZM51.4818 79.4356C51.5465 79.3569 51.6159 79.2783 51.6714 79.2182C51.7639 79.4263 51.824 79.6668 51.824 79.9489C51.824 80.7398 51.4679 81.0219 50.7695 81.0219C50.7279 81.0219 50.6816 81.0219 50.6215 81.0127C50.8528 80.2126 51.2413 79.7316 51.4818 79.4356Z" fill="#E1DDCC"/>
<path d="M63.324 73.0993C63.1667 73.3537 62.8939 74.0937 62.6534 74.9632C62.3435 74.0844 61.807 73.8301 61.3954 73.8301C60.9421 73.8301 60.2992 73.9457 59.8922 74.1538C58.6805 74.7551 56.6964 77.1647 56.6964 80.4161C56.6964 84.0004 59.1939 85.2446 60.2669 85.2446C61.4092 85.2446 62.584 83.7414 62.584 82.8164C62.584 82.5066 62.3897 82.3123 62.1955 82.2661C61.807 83.4639 60.9514 84.3242 60.2992 84.4722C59.0459 84.1161 58.3382 82.4834 58.3382 80.6936C58.3382 77.6087 59.9339 75.4164 61.3954 74.4961C61.9457 74.7088 62.288 75.5691 62.288 76.3553C62.288 76.4247 62.288 76.4802 62.2741 76.5496C62.1955 77.0259 62.14 77.4838 62.14 77.8631V78.0111C62.2417 78.0434 62.3342 78.0573 62.436 78.0573C62.88 78.0573 63.3055 77.7474 63.4859 77.1092C63.7356 76.2304 64.0224 74.8614 64.0224 73.7653C64.0224 73.1224 63.4766 73.0993 63.324 73.0993Z" fill="#E1DDCC"/>
<path d="M68.1739 81.6417C68.0953 81.6417 68.0259 81.6602 67.9936 81.7295C67.1611 83.2512 66.3517 83.9773 65.9863 83.9773C65.9724 83.8755 65.9724 83.7877 65.9724 83.6952C65.9724 82.4279 66.9067 81.1237 66.9067 80.6565C66.9067 80.3513 66.4858 79.861 66.1343 79.8009C65.8476 79.7547 65.4729 79.7223 65.0706 79.6205C65.3203 78.9823 65.5146 78.4458 65.5146 78.307C65.5146 78.0897 64.7607 77.863 64.5572 77.863C64.1826 77.863 63.6692 78.6955 63.6692 79.2413C63.6692 79.5604 63.7802 79.8703 64.1918 80.0877C63.9189 80.8415 63.7478 81.2393 63.5073 81.7527C63.4518 81.8914 63.7108 82.0949 63.8727 82.0949C63.9189 82.0949 63.9652 82.0857 63.9883 82.0394C64.2057 81.6278 64.5017 80.9664 64.7746 80.3282C65.0151 80.4068 65.2417 80.4854 65.4591 80.5548C64.8994 81.8452 64.7283 82.5528 64.7283 83.1587C64.7283 83.7877 65.4036 84.597 66.1112 84.597C66.9529 84.597 68.0398 83.0199 68.4838 81.9932C68.5856 81.7989 68.3589 81.6417 68.1739 81.6417Z" fill="#E1DDCC"/>
<path d="M72.8788 81.6417C72.8001 81.6417 72.7308 81.6602 72.6938 81.7296C71.9399 83.0801 70.779 83.7969 70.0714 83.7969C69.8401 83.7969 69.4516 83.4408 69.4516 82.4141C69.4516 82.0949 69.4748 81.7989 69.521 81.5353C69.7708 81.5954 70.0113 81.6278 70.2286 81.6278C71.2323 81.6278 71.8844 81.0589 71.8844 80.0414C71.8844 79.1627 71.4866 78.7649 71.223 78.6169C71.075 78.5244 70.8438 78.4874 70.7559 78.4874C70.6958 78.4874 70.6541 78.5013 70.6171 78.5106C70.3766 78.4643 70.1269 78.4319 69.9789 78.4319C69.4424 78.4319 67.9901 79.7686 67.9901 81.9007C67.9901 83.9218 69.5349 84.4722 70.2055 84.4722C71.3248 84.4722 72.6475 83.1448 73.184 81.9932C73.2765 81.8128 73.0591 81.6417 72.8788 81.6417ZM70.483 79.4356C70.5478 79.3569 70.6171 79.2783 70.6726 79.2182C70.7651 79.4263 70.8253 79.6668 70.8253 79.9489C70.8253 80.7398 70.4691 81.0219 69.7708 81.0219C69.7291 81.0219 69.6829 81.0219 69.6228 81.0127C69.854 80.2126 70.2425 79.7316 70.483 79.4356Z" fill="#E1DDCC"/>
<path d="M78.9819 81.6417C78.9033 81.6417 78.8478 81.6741 78.8108 81.7296C78.3437 82.5991 77.6129 83.8201 77.0996 83.9912C77.0533 83.8201 77.0302 83.6582 77.0302 83.4871C77.0302 82.1088 77.5112 80.6704 77.8766 79.6761C77.9691 79.4356 77.9783 79.3801 77.9783 79.3107C77.9783 78.8898 77.5343 78.3996 77.0441 78.3996C76.9747 78.5013 76.8961 78.6586 76.5399 79.4818C76.3457 79.1858 76.1422 78.9823 75.8786 78.8528C75.6288 78.7279 74.9304 78.4551 74.5327 78.4551C74.1442 78.4551 73.9962 78.5938 73.7002 79.0008C73.0573 79.8934 72.5902 81.2301 72.5902 82.5759C72.5902 83.4316 72.8307 84.0467 73.7233 84.4028C73.8019 84.4352 73.9499 84.4722 74.0887 84.4722C74.6483 84.4722 75.3328 83.4778 75.7999 82.6314V82.6453C75.7999 82.9737 75.8092 83.2928 75.9109 83.6258C76.0728 84.1623 76.6879 84.6526 77.2013 84.6526C77.7979 84.6526 78.8478 83.0107 79.3149 81.9701C79.3843 81.7989 79.1762 81.6417 78.9819 81.6417ZM74.0193 83.8756C73.9268 83.6351 73.9037 83.4084 73.9037 83.1911C73.9037 81.8221 74.4957 80.1108 75.2634 79.1396C75.7074 79.5373 75.9109 80.0322 76.1653 80.3513C76.0959 80.5086 76.0266 80.6936 75.9479 80.8739C75.4901 81.9701 74.8287 83.1217 74.0193 83.8756Z" fill="#E1DDCC"/>
<path d="M82.0973 81.6509C82.0186 81.6509 81.94 81.6833 81.903 81.7527C81.3665 82.7702 80.6589 83.5009 80.0761 83.7877C80.0761 82.0949 80.571 80.0877 80.9919 78.6031C81.6301 78.5568 82.2823 78.4551 82.4071 78.2608C82.2591 77.8399 81.8475 77.5532 81.3203 77.5532H81.2879C81.4498 77.0167 81.5515 76.6513 81.5515 76.5264C81.5515 76.1148 81.163 75.6801 80.4785 75.6246C80.2935 76.3091 80.053 77.0259 79.8171 77.7706C79.5628 77.8168 79.313 77.8492 79.0864 77.8492C78.7071 77.8492 78.3788 77.7012 78.2724 77.7012C78.2308 77.7012 78.1383 77.7151 78.0689 77.7706C78.4343 78.3394 78.684 78.4782 79.5628 78.5707C79.1326 79.9489 78.7534 81.3873 78.7534 82.7702C78.7534 83.5796 79.3824 84.6202 80.0345 84.6202C80.7514 84.6202 81.8938 83.0986 82.4164 81.9701C82.4858 81.7989 82.2823 81.6509 82.0973 81.6509Z" fill="#E1DDCC"/>
<path d="M83.5918 77.7937C84.0728 77.7937 84.4243 77.5208 84.6417 77.086L84.8591 76.6652C85.0441 76.2998 85.132 76.1287 85.132 76.013C85.132 75.5922 84.3688 75.4072 83.7768 75.4072C83.4346 76.3784 83.2172 76.9704 83.2172 77.4514C83.2172 77.5763 83.2265 77.6688 83.2403 77.7335C83.3652 77.7705 83.4438 77.7937 83.5918 77.7937ZM83.4207 84.3103C84.0821 84.3103 85.0302 82.9737 85.4973 81.97C85.5898 81.7758 85.3632 81.6417 85.1782 81.6417C85.0996 81.6417 85.0302 81.6602 84.9978 81.7295C84.688 82.2892 84.1746 83.08 83.3421 83.7414C83.2635 83.6027 83.2265 83.4547 83.2265 83.191C83.2265 82.0857 83.5363 81.2162 83.8555 80.305C83.9803 79.9489 84.0821 79.676 84.0821 79.5188C84.0821 79.0702 83.4438 78.7742 82.8056 78.7742C82.7131 79.0609 82.6113 79.343 82.5188 79.6205C82.1211 80.749 81.7788 81.7434 81.7788 82.5435C81.7788 82.9968 81.8945 83.376 82.3153 83.7507C82.7038 84.1068 83.0322 84.3103 83.4207 84.3103Z" fill="#E1DDCC"/>
<path d="M90.3731 80.2819C90.1234 80.6797 89.869 80.8277 89.6516 80.8277C89.4574 80.8277 89.3094 80.7953 89.1753 80.6242C89.3695 80.1108 89.4944 79.6529 89.4944 79.2876C89.4944 78.8898 89.3094 78.3533 88.6388 78.3533C88.1254 78.3533 87.9173 78.7973 87.9173 79.3569C87.9173 79.8796 88.0653 80.3143 88.2826 80.6566C87.7924 81.6602 86.9691 83.0338 86.1135 83.7738C86.3771 82.2198 86.5945 80.7398 86.5945 79.8009C86.5945 78.9916 86.4326 78.5707 85.725 78.5707C85.5539 78.5707 85.281 78.5938 85.0868 78.6586C85.1885 79.0008 85.2116 79.1719 85.2116 79.5373C85.2116 80.7398 84.8694 82.1782 84.8694 83.2373C84.8694 83.3391 84.8694 83.4408 84.8833 83.5333C84.9156 83.9357 85.6834 84.5277 86.1043 84.5277C86.798 84.5277 88.1115 82.8396 88.8885 81.2624C89.1521 81.4243 89.4158 81.5122 89.6424 81.5122C90.202 81.5122 90.5674 80.9896 90.5674 80.5779C90.5674 80.4161 90.498 80.2819 90.3731 80.2819Z" fill="#E1DDCC"/>
<path d="M94.8928 81.6417C94.8142 81.6417 94.7448 81.6602 94.7078 81.7296C93.954 83.0801 92.7931 83.7969 92.0855 83.7969C91.8542 83.7969 91.4657 83.4408 91.4657 82.4141C91.4657 82.0949 91.4888 81.7989 91.5351 81.5353C91.7848 81.5954 92.0253 81.6278 92.2427 81.6278C93.2463 81.6278 93.8985 81.0589 93.8985 80.0414C93.8985 79.1627 93.5007 78.7649 93.2371 78.6169C93.0891 78.5244 92.8578 78.4874 92.77 78.4874C92.7098 78.4874 92.6682 78.5013 92.6312 78.5106C92.3907 78.4643 92.141 78.4319 91.993 78.4319C91.4565 78.4319 90.0042 79.7686 90.0042 81.9007C90.0042 83.9218 91.549 84.4722 92.2196 84.4722C93.3388 84.4722 94.6616 83.1448 95.1981 81.9932C95.2906 81.8128 95.0732 81.6417 94.8928 81.6417ZM92.4971 79.4356C92.5618 79.3569 92.6312 79.2783 92.6867 79.2182C92.7792 79.4263 92.8393 79.6668 92.8393 79.9489C92.8393 80.7398 92.4832 81.0219 91.7848 81.0219C91.7432 81.0219 91.697 81.0219 91.6368 81.0127C91.8681 80.2126 92.2566 79.7316 92.4971 79.4356Z" fill="#E1DDCC"/>
</svg>
